<svg width="835" height="736" viewBox="0 0 835 736" fill="none" xmlns="http://www.w3.org/2000/svg">
<path d="M383.745 682.497C387.226 675.535 380.553 663.64 376.782 658.563C409.42 655.081 433.789 629.406 434.659 629.841C435.53 630.277 463.816 669.007 462.51 676.84C461.205 684.673 401.586 719.487 396.799 720.357C392.013 721.228 375.476 729.061 372.865 714.265C370.254 699.469 379.393 691.201 383.745 682.497Z" fill="#FEC749"/>
<path fill-rule="evenodd" clip-rule="evenodd" d="M434.152 627.891C434.337 627.849 434.918 627.734 435.554 628.053L434.661 629.839L435.554 628.053C435.846 628.198 436.05 628.394 436.088 628.43C436.09 628.432 436.091 628.433 436.092 628.434C436.169 628.507 436.239 628.581 436.295 628.642C436.409 628.766 436.538 628.919 436.675 629.084C436.951 629.42 437.315 629.883 437.748 630.449C438.617 631.584 439.8 633.179 441.184 635.096C443.952 638.931 447.546 644.083 451.074 649.471C454.597 654.85 458.078 660.502 460.604 665.325C461.865 667.733 462.913 669.981 463.607 671.913C464.264 673.743 464.739 675.637 464.483 677.169C464.322 678.135 463.782 679.041 463.215 679.803C462.616 680.609 461.822 681.47 460.898 682.362C459.046 684.15 456.516 686.213 453.564 688.423C447.652 692.85 439.874 697.997 432.021 702.906C424.161 707.818 416.191 712.513 409.878 716.038C406.723 717.8 403.969 719.277 401.842 720.346C400.78 720.879 399.857 721.32 399.11 721.645C398.426 721.943 397.715 722.224 397.157 722.325C396.679 722.412 395.996 722.599 395.067 722.871C394.834 722.94 394.589 723.012 394.332 723.089C393.606 723.304 392.791 723.546 391.94 723.781C389.634 724.418 386.862 725.065 384.103 725.184C381.352 725.302 378.406 724.905 375.922 723.243C373.378 721.542 371.621 718.72 370.896 714.612C369.498 706.688 371.264 700.484 373.905 695.202C375.21 692.592 376.734 690.197 378.157 687.974L378.281 687.781C379.677 685.6 380.954 683.606 381.956 681.603C383.294 678.926 382.786 674.928 381.114 670.534C379.489 666.264 376.979 662.182 375.177 659.755L373.089 656.945L376.57 656.574C392.444 654.881 406.385 647.775 416.531 641.065C421.592 637.718 425.681 634.487 428.568 632.112C429.303 631.507 430.056 630.877 430.704 630.335C431.223 629.901 431.674 629.523 431.993 629.261C432.4 628.928 432.773 628.63 433.073 628.419C433.215 628.319 433.41 628.188 433.623 628.083C433.725 628.032 433.913 627.946 434.152 627.891ZM380.275 660.126C381.872 662.635 383.593 665.803 384.852 669.111C386.589 673.675 387.677 679.105 385.534 683.392C384.435 685.589 383.055 687.744 381.698 689.863C381.64 689.952 381.583 690.041 381.526 690.13C380.094 692.368 378.68 694.596 377.483 696.991C375.12 701.717 373.622 707.045 374.835 713.917C375.416 717.208 376.704 718.955 378.146 719.919C379.646 720.922 381.622 721.287 383.931 721.188C386.23 721.089 388.653 720.539 390.875 719.925C391.687 719.701 392.446 719.476 393.162 719.263C393.428 719.185 393.687 719.108 393.941 719.033C394.843 718.768 395.723 718.52 396.442 718.389C396.44 718.39 396.44 718.39 396.44 718.39C396.445 718.388 396.529 718.368 396.725 718.297C396.925 718.225 397.187 718.12 397.514 717.977C398.167 717.693 399.017 717.289 400.046 716.772C402.101 715.739 404.8 714.293 407.928 712.546C414.18 709.054 422.094 704.393 429.901 699.514C437.714 694.631 445.384 689.551 451.167 685.221C454.063 683.052 456.442 681.103 458.12 679.484C458.96 678.673 459.585 677.982 460.005 677.417C460.214 677.136 460.353 676.912 460.44 676.741C460.522 676.582 460.538 676.508 460.538 676.508C460.538 676.508 460.538 676.509 460.538 676.511C460.609 676.085 460.485 675.054 459.842 673.266C459.236 671.578 458.281 669.512 457.06 667.181C454.623 662.526 451.222 656.999 447.728 651.662C444.239 646.333 440.68 641.232 437.941 637.438C436.571 635.54 435.411 633.977 434.572 632.88C434.479 632.76 434.391 632.645 434.308 632.537C433.971 632.815 433.625 633.105 433.238 633.43C432.659 633.915 431.986 634.479 431.11 635.2C428.163 637.625 423.957 640.949 418.737 644.402C409.006 650.837 395.657 657.782 380.275 660.126Z" fill="black"/>
<path d="M448.15 723.844C440.143 712.007 444.813 685.839 448.15 674.235V669.883L518.648 672.059C521.433 681.11 513.136 687.435 508.639 689.466C512.555 696.864 518.909 714.096 512.991 723.844C505.593 736.029 458.159 738.64 448.15 723.844Z" fill="#FEC749"/>
<path fill-rule="evenodd" clip-rule="evenodd" d="M446.15 667.82L520.139 670.104L520.559 671.471C522.19 676.771 520.533 681.278 517.958 684.617C516.01 687.142 513.496 689.068 511.314 690.332C513.169 694.191 515.277 699.657 516.461 705.368C517.826 711.949 518.067 719.337 514.7 724.882C512.444 728.599 507.456 731.226 501.731 732.978C495.878 734.769 488.756 735.795 481.596 735.962C474.437 736.128 467.135 735.438 460.932 733.728C454.797 732.037 449.394 729.254 446.493 724.965C442.087 718.451 441.313 708.347 441.9 698.829C442.485 689.332 444.466 679.888 446.15 673.955V667.82ZM450.15 671.946V674.517L450.072 674.787C448.436 680.478 446.465 689.775 445.892 699.076C445.311 708.502 446.205 717.401 449.806 722.724C451.909 725.833 456.189 728.272 461.995 729.872C467.731 731.453 474.627 732.123 481.503 731.963C488.377 731.803 495.126 730.816 500.56 729.153C506.123 727.451 509.838 725.182 511.281 722.806C513.833 718.603 513.856 712.502 512.544 706.18C511.252 699.947 508.759 693.967 506.871 690.402L505.875 688.519L507.816 687.643C509.839 686.729 512.747 684.823 514.79 682.174C516.545 679.899 517.605 677.175 517.063 674.011L450.15 671.946Z" fill="black"/>
<path d="M444.234 677.28C440.404 677.976 432.194 548.759 428.568 484.063V547.163C426.102 550.499 419.864 558.651 414.642 564.57C408.114 571.968 428.568 606.782 434.224 621.142C439.881 635.503 428.568 644.642 408.114 655.521C387.661 666.4 375.476 660.308 368.513 659.873C361.551 659.437 359.81 656.826 351.107 625.059C342.403 593.291 338.487 556.737 348.496 524.534C356.503 498.772 376.782 470.863 385.921 460.128C390.127 460.128 403.066 462.217 421.17 470.573C443.799 481.017 506.463 446.203 511.685 456.212C516.908 466.221 516.908 507.562 521.694 547.163C526.481 586.764 523.87 667.706 521.694 674.233C519.519 680.761 449.021 676.409 444.234 677.28Z" fill="#299241"/>
<path fill-rule="evenodd" clip-rule="evenodd" d="M507.248 452.384C509.626 452.412 512.253 452.975 513.459 455.287C514.946 458.138 515.955 462.929 516.761 468.805C517.579 474.773 518.222 482.17 518.847 490.44C519.107 493.869 519.364 497.451 519.629 501.152C520.646 515.342 521.787 531.264 523.68 546.923C526.09 566.864 526.632 597.112 526.305 623.126C526.142 636.148 525.76 648.142 525.283 657.298C525.044 661.874 524.781 665.756 524.507 668.708C524.37 670.183 524.229 671.443 524.085 672.449C523.947 673.414 523.79 674.271 523.592 674.866C523.202 676.036 522.204 676.717 521.432 677.113C520.589 677.546 519.541 677.879 518.398 678.149C516.098 678.693 513.023 679.071 509.496 679.335C502.418 679.865 493.183 679.96 483.926 679.878C475.757 679.806 467.526 679.596 460.684 679.422C459.763 679.398 458.867 679.376 458 679.354C454.34 679.262 451.2 679.189 448.828 679.166C447.641 679.155 446.662 679.156 445.914 679.173C445.115 679.191 444.712 679.225 444.592 679.247C443.763 679.398 443.119 679.046 442.768 678.752C442.443 678.48 442.239 678.163 442.122 677.955C441.878 677.526 441.695 677.001 441.548 676.499C441.241 675.455 440.939 673.974 440.637 672.159C440.029 668.504 439.375 663.212 438.691 656.689C438.02 650.286 437.318 642.662 436.6 634.178C435.711 636.579 434.302 638.819 432.477 640.941C427.527 646.697 419.272 651.851 409.053 657.287C398.515 662.892 390.008 664.168 383.188 663.939C379.8 663.825 376.868 663.341 374.39 662.871C373.856 662.77 373.352 662.672 372.874 662.579C371.065 662.225 369.636 661.947 368.389 661.869C366.556 661.754 364.729 661.485 363.017 660.411C361.309 659.339 359.96 657.624 358.682 655.126C356.173 650.222 353.507 641.39 349.178 625.587C340.426 593.643 336.416 556.66 346.586 523.94C354.712 497.796 375.195 469.642 384.398 458.832L384.997 458.128L385.921 458.128C390.512 458.128 403.745 460.328 422.008 468.757C427.063 471.09 434.681 470.989 443.772 469.359C452.766 467.746 462.771 464.724 472.344 461.651C474.317 461.018 476.276 460.381 478.203 459.754C485.556 457.363 492.459 455.118 498.049 453.759C501.568 452.903 504.732 452.355 507.248 452.384ZM435.335 618.583C435.001 614.294 434.665 609.869 434.33 605.341C432.984 587.158 431.642 567.313 430.409 548.036L430.176 548.352C427.697 551.706 421.42 559.911 416.141 565.893C415.759 566.326 415.423 567.142 415.376 568.6C415.329 570.037 415.573 571.866 416.097 574.044C417.142 578.394 419.204 583.756 421.696 589.442C424.049 594.815 426.745 600.387 429.247 605.559C429.386 605.845 429.523 606.13 429.661 606.414C431.851 610.943 433.884 615.167 435.335 618.583ZM444.478 473.296C435.292 474.943 426.591 475.278 420.332 472.389C403.612 464.672 391.493 462.428 386.825 462.157C377.487 473.307 358.119 500.309 350.406 525.128C340.557 556.814 344.381 592.939 353.036 624.53C357.41 640.495 359.966 648.853 362.243 653.304C363.359 655.485 364.295 656.49 365.143 657.023C365.988 657.553 366.99 657.773 368.638 657.876C370.172 657.972 371.941 658.319 373.786 658.68C374.232 658.767 374.682 658.855 375.134 658.941C377.538 659.396 380.236 659.837 383.322 659.941C389.448 660.147 397.26 659.029 407.175 653.755C417.41 648.311 425.038 643.456 429.444 638.333C431.616 635.808 432.94 633.288 433.443 630.665C433.945 628.053 433.664 625.176 432.364 621.875C430.983 618.371 428.682 613.578 426.06 608.155C425.92 607.866 425.779 607.575 425.637 607.283C423.143 602.127 420.417 596.492 418.032 591.048C415.519 585.311 413.338 579.685 412.207 574.978C411.643 572.627 411.315 570.41 411.378 568.471C411.44 566.553 411.892 564.663 413.142 563.247C418.052 557.682 423.895 550.09 426.568 546.502V484.063L430.564 483.951C432.377 516.292 435.336 564.758 438.319 605.046C439.811 625.193 441.308 643.277 442.669 656.273C443.351 662.777 443.995 667.971 444.583 671.502C444.857 673.151 445.11 674.378 445.333 675.188C445.493 675.182 445.657 675.178 445.824 675.174C446.635 675.156 447.663 675.155 448.866 675.167C451.274 675.19 454.445 675.263 458.101 675.355C458.97 675.377 459.867 675.4 460.789 675.423C467.634 675.598 475.829 675.806 483.961 675.878C493.199 675.96 502.295 675.863 509.197 675.346C512.66 675.087 515.487 674.727 517.477 674.256C518.48 674.019 519.174 673.776 519.605 673.554C519.721 673.495 519.799 673.447 519.851 673.412C519.923 673.127 520.018 672.633 520.126 671.882C520.257 670.967 520.391 669.779 520.524 668.339C520.791 665.461 521.051 661.638 521.288 657.09C521.763 647.996 522.143 636.055 522.306 623.076C522.632 597.086 522.085 567.063 519.709 547.403C517.803 531.637 516.653 515.587 515.635 501.389C515.371 497.702 515.116 494.141 514.859 490.742C514.233 482.475 513.598 475.185 512.798 469.348C511.985 463.42 511.036 459.291 509.912 457.137C509.813 456.947 509.338 456.409 507.202 456.384C505.203 456.36 502.438 456.808 498.994 457.645C493.567 458.965 486.863 461.145 479.532 463.528C477.584 464.162 475.591 464.81 473.566 465.46C463.992 468.534 453.761 471.631 444.478 473.296Z" fill="black"/>
<path d="M294.099 323.048C294.447 330.011 300.917 339.005 304.108 342.631C306.719 383.537 266.248 377.88 264.072 374.834C261.896 371.788 253.628 360.038 249.711 354.381C245.795 348.723 237.527 348.723 227.953 345.242C218.379 341.761 213.592 339.15 214.027 333.928C214.462 328.706 227.518 333.057 229.693 330.446C231.869 327.835 215.768 323.048 218.379 318.697C220.99 314.345 231.434 322.178 235.351 320.437C239.267 318.697 220.12 312.169 223.166 307.382C226.212 302.595 239.702 310.863 243.619 309.123C247.536 307.382 228.388 300.854 233.61 296.938C238.832 293.021 265.378 306.947 272.34 310.863C279.303 314.78 280.609 307.382 281.479 301.725C282.349 296.068 280.609 290.41 286.701 292.586C292.794 294.762 293.664 314.345 294.099 323.048Z" fill="#FEAB98"/>
<path fill-rule="evenodd" clip-rule="evenodd" d="M282.628 290.472C284.063 289.837 285.725 290.114 287.374 290.703C289.745 291.55 291.227 293.897 292.213 296.274C293.244 298.759 293.968 301.856 294.495 305.044C295.512 311.2 295.855 318.1 296.072 322.465C296.081 322.63 296.089 322.791 296.096 322.949C296.246 325.945 297.754 329.596 299.77 333.092C301.757 336.537 304.092 339.585 305.609 341.31L306.06 341.822L306.104 342.504C306.778 353.058 304.683 360.838 300.922 366.46C297.162 372.083 291.869 375.348 286.511 377.114C281.174 378.874 275.717 379.169 271.456 378.834C269.323 378.666 267.443 378.336 265.985 377.929C265.26 377.726 264.598 377.492 264.045 377.228C263.571 377.001 262.89 376.621 262.445 375.996C260.262 372.941 251.988 361.184 248.067 355.519C246.511 353.272 244.029 352.022 240.371 350.909C239.036 350.503 237.622 350.135 236.087 349.736C235.518 349.589 234.933 349.437 234.329 349.277C232.126 348.693 229.747 348.023 227.269 347.122C222.505 345.389 218.648 343.781 216.043 341.842C214.71 340.851 213.615 339.709 212.899 338.331C212.17 336.931 211.897 335.405 212.034 333.762C212.128 332.64 212.585 331.677 213.353 330.942C214.077 330.248 214.973 329.856 215.816 329.621C217.462 329.163 219.484 329.155 221.268 329.209C221.929 329.229 222.559 329.257 223.161 329.284C224.319 329.336 225.372 329.384 226.336 329.358C226.482 329.354 226.62 329.349 226.751 329.342C225.99 328.817 225.039 328.25 223.968 327.612C223.605 327.395 223.228 327.171 222.84 326.937C221.15 325.918 219.246 324.716 217.941 323.42C217.287 322.77 216.637 321.956 216.309 320.982C215.949 319.912 216.016 318.747 216.664 317.668C217.876 315.648 219.968 315.264 221.717 315.382C223.427 315.498 225.335 316.106 227.035 316.7C227.522 316.87 227.995 317.04 228.454 317.205C229.105 317.439 229.729 317.663 230.331 317.865C230.218 317.796 230.105 317.726 229.99 317.655C229.523 317.368 229.033 317.066 228.525 316.748C226.583 315.535 224.408 314.105 222.918 312.607C222.175 311.861 221.456 310.955 221.088 309.908C220.686 308.761 220.73 307.485 221.479 306.308C222.829 304.187 225.202 303.797 227.181 303.881C229.206 303.968 231.51 304.566 233.632 305.192C234.388 305.415 235.119 305.64 235.825 305.858C236.976 306.213 238.062 306.548 239.085 306.819C238.933 306.723 238.778 306.626 238.62 306.526C238.12 306.213 237.593 305.881 237.045 305.53C235.259 304.384 233.216 302.995 231.99 301.536C231.38 300.81 230.738 299.796 230.702 298.573C230.662 297.193 231.394 296.1 232.41 295.338C233.587 294.455 235.11 294.236 236.51 294.251C237.963 294.267 239.621 294.542 241.361 294.968C244.85 295.823 248.991 297.368 253.107 299.124C261.357 302.644 269.803 307.141 273.321 309.12C274.835 309.972 275.716 310.021 276.177 309.925C276.595 309.839 277.035 309.558 277.503 308.816C277.988 308.049 278.388 306.957 278.722 305.61C279.051 304.28 279.284 302.838 279.502 301.421C279.696 300.161 279.75 298.887 279.804 297.599L279.809 297.484C279.86 296.258 279.918 294.896 280.185 293.76C280.457 292.603 281.068 291.162 282.628 290.472ZM242.804 307.297C242.812 307.293 242.813 307.292 242.807 307.295C242.806 307.296 242.805 307.296 242.804 307.297ZM234.535 318.611C234.544 318.607 234.546 318.607 234.539 318.61C234.537 318.61 234.536 318.611 234.535 318.611ZM283.797 297.838C283.745 299.077 283.684 300.546 283.456 302.029C283.239 303.44 282.982 305.045 282.604 306.571C282.231 308.08 281.706 309.653 280.885 310.952C280.048 312.278 278.802 313.466 276.989 313.842C275.221 314.209 273.327 313.713 271.36 312.607C267.915 310.669 259.607 306.246 251.538 302.803C247.494 301.078 243.585 299.631 240.41 298.853C238.818 298.464 237.491 298.262 236.466 298.251C235.387 298.239 234.938 298.442 234.81 298.538C234.795 298.549 234.782 298.56 234.769 298.57C234.82 298.658 234.907 298.789 235.053 298.963C235.827 299.884 237.346 300.97 239.205 302.163C239.638 302.441 240.093 302.727 240.551 303.014C241.895 303.858 243.269 304.721 244.212 305.466C244.546 305.729 244.877 306.016 245.163 306.321C245.431 306.608 245.759 307.015 245.961 307.529C246.184 308.097 246.279 308.889 245.864 309.676C245.492 310.38 244.877 310.752 244.431 310.951C243.51 311.36 242.493 311.406 241.607 311.347C240.692 311.286 239.705 311.095 238.724 310.855C237.417 310.535 235.936 310.079 234.489 309.633C233.812 309.424 233.142 309.218 232.5 309.029C230.379 308.403 228.495 307.941 227.011 307.878C225.482 307.813 225.027 308.184 224.853 308.456C224.851 308.46 224.848 308.462 224.845 308.465C224.834 308.473 224.826 308.479 224.863 308.584C224.945 308.817 225.191 309.221 225.753 309.786C226.874 310.913 228.67 312.122 230.645 313.356C231.063 313.617 231.493 313.882 231.924 314.147C233.404 315.058 234.889 315.971 235.899 316.758C236.242 317.025 236.579 317.313 236.87 317.619C237.143 317.906 237.475 318.312 237.682 318.826C237.91 319.392 238.014 320.189 237.598 320.984C237.226 321.694 236.608 322.067 236.163 322.265C235.277 322.659 234.333 322.73 233.487 322.68C232.632 322.63 231.747 322.448 230.895 322.219C229.643 321.883 228.258 321.386 226.961 320.92C226.534 320.766 226.116 320.616 225.716 320.476C223.988 319.873 222.551 319.448 221.447 319.373C220.411 319.303 220.199 319.555 220.102 319.712C220.15 319.846 220.314 320.139 220.761 320.583C221.674 321.49 223.169 322.464 224.906 323.512C225.227 323.705 225.558 323.903 225.893 324.102C227.249 324.909 228.664 325.751 229.687 326.529C230.307 327 231.017 327.615 231.453 328.363C231.686 328.763 231.904 329.307 231.896 329.957C231.888 330.645 231.626 331.251 231.23 331.727C230.564 332.526 229.64 332.887 228.897 333.072C228.125 333.264 227.268 333.335 226.442 333.357C225.337 333.386 224.033 333.328 222.786 333.273C222.22 333.247 221.665 333.223 221.147 333.207C219.341 333.152 217.881 333.198 216.889 333.475C216.414 333.607 216.201 333.752 216.119 333.83C216.081 333.867 216.036 333.911 216.02 334.094C215.94 335.061 216.101 335.821 216.448 336.487C216.806 337.176 217.424 337.884 218.431 338.633C220.503 340.176 223.826 341.614 228.636 343.363C230.945 344.202 233.19 344.837 235.353 345.41C235.91 345.557 236.466 345.702 237.019 345.846C238.582 346.252 240.115 346.65 241.536 347.082C245.385 348.254 248.995 349.832 251.356 353.242C255.208 358.807 263.281 370.281 265.597 373.528C265.635 373.55 265.691 373.581 265.772 373.62C266.051 373.753 266.478 373.913 267.063 374.077C268.225 374.402 269.843 374.694 271.77 374.846C275.627 375.15 280.533 374.873 285.259 373.315C289.965 371.764 294.436 368.963 297.597 364.237C300.687 359.617 302.654 352.966 302.151 343.425C300.501 341.479 298.252 338.466 296.305 335.09C294.201 331.442 292.3 327.115 292.101 323.148C292.094 323.007 292.087 322.863 292.08 322.717C291.861 318.323 291.527 311.621 290.548 305.696C290.041 302.627 289.378 299.877 288.519 297.807C287.614 295.627 286.704 294.711 286.028 294.47C284.869 294.056 284.392 294.101 284.276 294.123C284.235 294.184 284.158 294.338 284.079 294.676C283.913 295.379 283.86 296.34 283.804 297.689C283.802 297.738 283.799 297.788 283.797 297.838ZM284.305 294.089C284.306 294.09 284.3 294.097 284.287 294.107C284.299 294.092 284.305 294.087 284.305 294.089Z" fill="black"/>
<path d="M588.275 327.833C588.275 337.232 580.442 345.094 576.525 347.85C571.328 352.638 576.525 371.785 592.192 379.183C607.858 386.581 620.043 377.007 620.913 371.785C621.783 366.563 635.709 349.156 644.412 345.239C653.116 341.323 667.912 341.758 671.828 334.36C675.745 326.962 662.254 333.925 657.032 331.749C651.81 329.573 666.171 327.833 666.606 320.87C667.041 313.907 654.856 323.045 650.94 319.564C647.023 316.083 660.949 315.212 659.643 309.12C658.338 303.028 647.023 311.296 642.236 309.12C637.45 306.944 654.421 301.287 648.329 297.37C642.236 293.454 605.682 312.601 602.201 309.12C598.719 305.639 602.201 290.408 594.368 291.278C586.534 292.148 588.275 316.083 588.275 327.833Z" fill="#FEAB98"/>
<path fill-rule="evenodd" clip-rule="evenodd" d="M595.896 293.431C595.642 293.3 595.246 293.193 594.588 293.266C593.818 293.351 592.861 294.023 591.988 296.395C591.149 298.675 590.647 301.889 590.379 305.619C589.996 310.934 590.106 316.879 590.201 322.039C590.239 324.13 590.275 326.093 590.275 327.832C590.275 333.086 588.093 337.799 585.506 341.482C582.967 345.096 579.932 347.873 577.803 349.396C577.135 350.073 576.577 351.469 576.578 353.724C576.579 355.995 577.157 358.808 578.383 361.773C580.835 367.706 585.737 373.923 593.046 377.374C600.353 380.825 606.727 380.28 611.334 378.369C613.657 377.405 615.528 376.095 616.844 374.773C618.202 373.409 618.818 372.19 618.94 371.456C619.096 370.519 619.508 369.472 620.019 368.427C620.545 367.352 621.237 366.159 622.047 364.901C623.667 362.386 625.818 359.527 628.202 356.726C630.588 353.924 633.236 351.149 635.861 348.811C638.462 346.495 641.142 344.517 643.592 343.415C645.95 342.354 648.661 341.612 651.361 340.98C652.594 340.691 653.78 340.435 654.947 340.182C656.453 339.856 657.928 339.536 659.435 339.164C662.03 338.521 664.34 337.804 666.205 336.849C668.061 335.9 669.339 334.787 670.061 333.424C670.176 333.206 670.266 333.017 670.335 332.856C670.313 332.856 670.292 332.856 670.269 332.856C669.721 332.863 669.019 332.941 668.161 333.073C667.589 333.161 666.919 333.28 666.206 333.406C664.958 333.627 663.574 333.873 662.335 334.02C660.383 334.253 658.093 334.357 656.263 333.595C655.855 333.425 655.445 333.218 655.087 332.954C654.738 332.697 654.308 332.289 654.066 331.676C653.474 330.174 654.471 329.048 654.899 328.649C655.404 328.177 656.081 327.771 656.679 327.439C657.109 327.2 657.606 326.94 658.106 326.68C658.327 326.565 658.549 326.449 658.765 326.335C660.257 325.549 661.737 324.706 662.865 323.705C663.984 322.712 664.547 321.751 664.61 320.745C664.627 320.469 664.612 320.296 664.595 320.195C664.592 320.195 664.59 320.195 664.587 320.194C664.334 320.155 663.899 320.164 663.22 320.284C662.562 320.4 661.805 320.595 660.946 320.836C660.639 320.923 660.317 321.016 659.983 321.113C658.545 321.529 656.902 322.005 655.404 322.234C653.638 322.505 651.313 322.572 649.611 321.059C648.934 320.457 648.232 319.555 648.243 318.347C648.254 317.154 648.958 316.319 649.487 315.839C650.038 315.34 650.727 314.924 651.359 314.58C651.868 314.303 652.438 314.02 652.987 313.747C653.133 313.674 653.277 313.603 653.418 313.532C654.862 312.81 656.099 312.137 656.917 311.372C657.658 310.679 657.819 310.152 657.688 309.539C657.6 309.13 657.477 309.03 657.455 309.012L657.454 309.011C657.413 308.978 657.27 308.883 656.871 308.848C655.974 308.77 654.629 309.046 652.799 309.573C652.337 309.706 651.843 309.855 651.333 310.01C649.998 310.413 648.543 310.853 647.209 311.137C645.41 311.521 643.239 311.773 641.409 310.941C640.529 310.541 639.398 309.701 639.374 308.183C639.355 306.979 640.102 306.056 640.551 305.566C641.359 304.685 642.666 303.715 643.826 302.854C644.083 302.664 644.332 302.479 644.567 302.302C646.073 301.165 647.129 300.25 647.553 299.534C647.596 299.46 647.624 299.404 647.641 299.364C647.582 299.299 647.465 299.193 647.247 299.053C647.088 298.95 646.446 298.749 644.918 298.885C643.502 299.012 641.692 299.39 639.57 299.972C635.332 301.134 630.166 303.02 624.986 304.955C624.322 305.204 623.657 305.453 622.995 305.701C618.537 307.372 614.166 309.01 610.613 310.112C608.578 310.743 606.714 311.23 605.202 311.436C604.449 311.538 603.692 311.584 603.001 311.506C602.346 311.432 601.468 311.216 600.786 310.534C600.048 309.795 599.595 308.855 599.291 307.96C598.984 307.05 598.782 306.041 598.632 305.038C598.48 304.029 598.371 302.956 598.267 301.912C598.258 301.818 598.249 301.725 598.24 301.631C598.145 300.67 598.052 299.734 597.933 298.828C597.663 296.773 597.29 295.219 596.699 294.251C596.428 293.807 596.157 293.565 595.896 293.431ZM647.696 299.436C647.696 299.436 647.694 299.433 647.692 299.428C647.695 299.433 647.696 299.436 647.696 299.436ZM647.666 299.29C647.667 299.284 647.667 299.28 647.668 299.28C647.668 299.28 647.668 299.283 647.666 299.29ZM603.476 307.534C603.36 307.364 603.221 307.093 603.08 306.677C602.881 306.09 602.722 305.345 602.587 304.444C602.453 303.549 602.352 302.569 602.248 301.518C602.238 301.423 602.229 301.327 602.22 301.231C602.126 300.281 602.027 299.28 601.899 298.306C601.625 296.227 601.182 293.919 600.114 292.167C599.555 291.251 598.786 290.419 597.725 289.873C596.656 289.324 595.447 289.146 594.147 289.29C591.001 289.64 589.238 292.286 588.234 295.014C587.196 297.833 586.665 301.501 586.389 305.332C585.993 310.839 586.108 317.11 586.203 322.325C586.241 324.357 586.275 326.229 586.275 327.832C586.275 331.979 584.541 335.896 582.232 339.183C579.926 342.467 577.157 344.96 575.374 346.215L575.267 346.29L575.17 346.379C573.274 348.126 572.576 350.9 572.578 353.726C572.579 356.623 573.304 359.957 574.686 363.301C577.45 369.989 582.98 377.045 591.338 380.991C599.696 384.938 607.248 384.395 612.867 382.063C615.658 380.906 617.976 379.305 619.679 377.595C621.34 375.927 622.573 373.99 622.886 372.113C622.947 371.745 623.161 371.106 623.612 370.184C624.049 369.292 624.655 368.238 625.409 367.068C626.916 364.729 628.955 362.012 631.248 359.319C633.541 356.627 636.06 353.989 638.521 351.799C641.006 349.586 643.33 347.919 645.233 347.063C647.226 346.166 649.628 345.494 652.273 344.875C653.341 344.625 654.495 344.374 655.668 344.119C657.264 343.772 658.896 343.418 660.396 343.046C663.077 342.383 665.745 341.578 668.027 340.411C670.319 339.238 672.359 337.631 673.596 335.296C674.133 334.282 674.539 333.222 674.531 332.197C674.527 331.645 674.401 331.063 674.078 330.527C673.754 329.989 673.304 329.616 672.839 329.37C671.986 328.917 670.999 328.847 670.22 328.857C669.386 328.867 668.463 328.979 667.553 329.119C666.778 329.239 666.028 329.373 665.285 329.506C664.148 329.709 663.028 329.909 661.861 330.048C661.18 330.13 660.57 330.176 660.031 330.187C660.222 330.088 660.421 329.984 660.631 329.873C662.131 329.083 663.996 328.049 665.52 326.697C667.053 325.337 668.448 323.47 668.602 320.994C668.672 319.885 668.517 318.744 667.852 317.803C667.151 316.811 666.131 316.385 665.199 316.241C664.309 316.103 663.37 316.196 662.526 316.345C661.661 316.497 660.746 316.738 659.863 316.986C659.485 317.092 659.113 317.2 658.749 317.305C657.33 317.714 656.013 318.094 654.798 318.281C653.878 318.422 653.266 318.406 652.863 318.325C652.985 318.253 653.121 318.175 653.274 318.092C653.709 317.855 654.187 317.617 654.725 317.35C654.881 317.273 655.041 317.193 655.207 317.11C656.592 316.417 658.346 315.513 659.65 314.293C661.03 313.001 662.12 311.134 661.599 308.701C661.361 307.591 660.846 306.615 659.98 305.909C659.133 305.22 658.14 304.944 657.221 304.863C655.48 304.711 653.452 305.223 651.692 305.729C651.112 305.896 650.549 306.067 649.999 306.233C648.731 306.616 647.536 306.978 646.375 307.225C645.548 307.401 644.879 307.484 644.344 307.494C644.811 307.111 645.383 306.685 646.039 306.196C646.335 305.975 646.649 305.742 646.977 305.494C648.354 304.455 650.1 303.085 650.995 301.571C651.477 300.757 651.858 299.663 651.565 298.443C651.272 297.228 650.42 296.337 649.41 295.688C648.047 294.811 646.214 294.754 644.562 294.901C642.8 295.059 640.727 295.507 638.512 296.115C634.073 297.332 628.741 299.282 623.586 301.208C622.914 301.459 622.246 301.71 621.583 301.958C617.106 303.636 612.861 305.227 609.428 306.292C607.45 306.905 605.84 307.312 604.663 307.472C604.094 307.55 603.709 307.557 603.476 307.534ZM643.296 308.527C643.295 308.527 643.297 308.523 643.302 308.514C643.298 308.522 643.296 308.527 643.296 308.527ZM652.129 317.926C652.129 317.927 652.132 317.93 652.137 317.937C652.131 317.93 652.128 317.926 652.129 317.926ZM652.109 318.866C652.103 318.875 652.099 318.879 652.098 318.88C652.098 318.88 652.101 318.875 652.109 318.866ZM657.597 331.604C657.596 331.604 657.599 331.601 657.606 331.594C657.6 331.601 657.597 331.604 657.597 331.604ZM603.334 307.513C603.324 307.51 603.319 307.509 603.32 307.508C603.32 307.508 603.325 307.509 603.334 307.513Z" fill="black"/>
<path d="M282.784 372.658C298.45 367.436 303.527 350.464 304.107 342.631C319.773 343.676 317.598 354.381 314.552 359.603C318.469 366.421 326.911 380.579 329.348 382.667C332.394 385.278 336.311 384.843 361.986 363.52C387.661 342.196 405.503 340.456 413.771 341.326C420.386 342.022 442.348 342.486 452.502 342.631C454.823 340.746 465.122 338.802 487.751 346.113C516.037 355.251 545.193 387.889 551.286 384.843C557.378 381.797 563.035 372.658 564.776 358.298C566.169 346.809 573.189 345.387 576.526 346.113C576.236 349.739 578.876 359.516 591.757 369.612C604.638 379.708 617.142 373.819 621.784 369.612C623.524 374.254 625.961 384.408 621.784 387.889C616.562 392.241 613.951 393.982 607.858 405.731C601.766 417.481 566.517 457.517 545.193 457.517C523.87 457.517 512.555 444.686 506.898 437.934C502.372 432.532 498.92 418.276 497.76 411.824C498.195 416.321 499.413 426.62 500.806 431.842C502.547 438.369 504.287 438.804 511.25 443.591C516.82 447.421 514.441 454.471 512.555 457.517C447.715 499.729 388.531 471.007 382.874 465.785C377.217 460.563 381.569 455.776 385.485 452.295C388.618 449.51 391.142 435.758 392.013 429.231C383.454 437.499 360.332 454.122 336.311 454.471C306.284 454.906 288.007 425.749 279.738 412.259C271.47 398.769 262.766 406.166 259.284 393.111C256.499 382.667 260.445 375.124 262.766 372.658C262.911 374.834 267.117 377.88 282.784 372.658Z" fill="#F66C1E"/>
<path fill-rule="evenodd" clip-rule="evenodd" d="M462.578 338.924C468.507 339.125 476.928 340.514 488.365 344.21C502.884 348.9 517.5 359.561 529.061 368.462C530.528 369.592 531.943 370.691 533.303 371.747C537.361 374.899 540.923 377.666 543.9 379.714C545.888 381.082 547.507 382.052 548.758 382.592C549.382 382.86 549.835 382.987 550.143 383.028C550.306 383.05 550.392 383.043 550.423 383.039C555.614 380.42 561.085 372.128 562.791 358.057C563.535 351.917 565.837 348.116 568.748 346.006C571.613 343.929 574.8 343.691 576.951 344.158L578.659 344.53L578.519 346.272C578.301 349.007 580.434 358.196 592.991 368.038C604.843 377.327 616.242 371.935 620.441 368.13L622.622 366.153L623.656 368.91C624.572 371.35 625.671 375.232 625.996 379.015C626.158 380.907 626.135 382.866 625.745 384.646C625.355 386.424 624.563 388.177 623.064 389.426C622.75 389.687 622.449 389.937 622.158 390.178C619.974 391.988 618.376 393.312 616.675 395.326C614.748 397.609 612.652 400.831 609.634 406.652C606.434 412.823 595.908 425.952 583.605 437.489C577.428 443.282 570.724 448.75 564.172 452.781C557.671 456.781 551.083 459.517 545.193 459.517C532.643 459.517 523.408 455.241 516.712 450.286C516.713 450.508 516.707 450.73 516.696 450.95C516.54 453.994 515.325 456.842 514.256 458.57L514.021 458.949L513.647 459.193C480.786 480.586 449.304 484.026 425.306 481.427C413.318 480.129 403.199 477.325 395.701 474.504C391.952 473.094 388.846 471.675 386.48 470.431C384.165 469.213 382.427 468.094 381.517 467.255C379.899 465.761 378.858 464.168 378.411 462.474C377.96 460.763 378.164 459.136 378.72 457.675C379.784 454.883 382.211 452.529 384.156 450.8C384.549 450.451 385.155 449.478 385.84 447.711C386.487 446.041 387.1 443.948 387.655 441.689C388.245 439.289 388.758 436.754 389.173 434.422C384.592 438.206 378.273 442.67 370.898 446.587C360.885 451.905 348.78 456.29 336.34 456.47C320.618 456.698 308.061 449.166 298.485 440.034C288.921 430.915 282.168 420.05 278.033 413.304C276.099 410.148 274.191 408.293 272.405 407.056C270.702 405.877 269.053 405.214 267.315 404.516C267.2 404.47 267.085 404.424 266.969 404.377C265.154 403.646 263.153 402.809 261.414 401.169C259.639 399.495 258.29 397.144 257.352 393.627C254.379 382.479 258.539 374.23 261.309 371.287L261.5 369.5L264.758 372.471C264.814 372.599 265.197 373.196 267.204 373.448C269.794 373.774 274.426 373.336 282.151 370.761C289.39 368.348 294.23 363.214 297.359 357.644C300.501 352.051 301.842 346.14 302.112 342.484L302.259 340.504L304.24 340.636C308.367 340.911 311.524 341.833 313.844 343.298C316.205 344.789 317.607 346.786 318.262 348.978C319.381 352.723 318.253 356.744 316.841 359.57C318.791 362.94 321.574 367.641 324.201 371.849C325.646 374.164 327.034 376.313 328.203 378.003C329.432 379.779 330.272 380.826 330.649 381.149C331.188 381.61 331.554 381.779 332.111 381.776C332.819 381.772 334.049 381.478 336.236 380.306C340.601 377.968 347.852 372.658 360.708 361.981C386.712 340.385 405.074 338.399 413.981 339.337C420.351 340.008 441.456 340.467 451.901 340.622C452.807 340.085 454.004 339.676 455.409 339.391C457.241 339.02 459.614 338.824 462.578 338.924ZM264.749 372.447C264.749 372.447 264.751 372.451 264.753 372.46C264.75 372.451 264.749 372.447 264.749 372.447ZM456.203 343.312C454.692 343.618 453.979 344.007 453.763 344.184L453.199 344.641L452.473 344.631C442.367 344.487 420.29 344.023 413.562 343.315C405.932 342.512 388.61 344.008 363.264 365.058C350.445 375.705 342.899 381.275 338.125 383.832C335.744 385.108 333.819 385.766 332.133 385.776C330.296 385.786 329.031 385.03 328.046 384.186C327.205 383.465 326.076 381.959 324.914 380.279C323.693 378.514 322.268 376.306 320.808 373.968C317.887 369.288 314.784 364.023 312.818 360.599L312.241 359.596L312.824 358.596C314.229 356.187 315.233 352.81 314.43 350.123C314.051 348.856 313.251 347.654 311.709 346.681C310.415 345.864 308.544 345.175 305.879 344.816C305.299 348.905 303.784 354.374 300.846 359.603C297.375 365.784 291.843 371.746 283.416 374.556C275.475 377.203 270.17 377.853 266.705 377.417C265.14 377.22 263.792 376.759 262.778 376.071C260.997 379.224 259.201 385.036 261.217 392.596C262.019 395.606 263.064 397.226 264.158 398.259C265.289 399.325 266.633 399.929 268.464 400.667C268.593 400.719 268.724 400.771 268.857 400.825C270.56 401.507 272.595 402.323 274.682 403.767C276.962 405.346 279.243 407.624 281.443 411.214C285.577 417.958 292.097 428.416 301.245 437.139C310.381 445.85 321.977 452.678 336.282 452.471C347.862 452.303 359.329 448.202 369.022 443.054C378.708 437.91 386.476 431.798 390.623 427.792L394.754 423.801L393.995 429.495C393.553 432.809 392.693 437.953 391.54 442.644C390.964 444.986 390.304 447.262 389.569 449.157C388.872 450.955 387.987 452.746 386.814 453.79C384.842 455.542 383.135 457.322 382.458 459.099C382.144 459.923 382.077 460.689 382.278 461.454C382.484 462.234 383.02 463.198 384.231 464.315C384.736 464.782 386.084 465.703 388.342 466.89C390.548 468.051 393.501 469.403 397.109 470.76C404.325 473.475 414.116 476.192 425.736 477.45C448.86 479.954 479.235 476.687 511.073 456.095C511.827 454.757 512.599 452.751 512.701 450.746C512.809 448.637 512.195 446.668 510.117 445.239C509.353 444.714 508.635 444.231 507.961 443.778C505.714 442.268 503.96 441.088 502.655 439.783C500.78 437.909 499.787 435.785 498.873 432.357C497.432 426.953 496.202 416.495 495.769 412.016L499.728 411.47C500.296 414.628 501.431 419.723 502.976 424.677C504.55 429.723 506.451 434.286 508.431 436.65C514.017 443.316 524.815 455.517 545.193 455.517C549.966 455.517 555.78 453.248 562.076 449.374C568.321 445.532 574.808 440.256 580.869 434.571C593.045 423.153 603.19 410.389 606.083 404.811C609.157 398.882 611.413 395.359 613.619 392.746C615.563 390.443 617.441 388.889 619.609 387.095C619.901 386.853 620.199 386.606 620.503 386.353C621.093 385.861 621.563 385.039 621.837 383.789C622.111 382.541 622.153 381.018 622.01 379.357C621.821 377.147 621.321 374.853 620.764 372.916C614.542 377.057 602.647 380.689 590.523 371.186C579.013 362.164 575.144 353.131 574.58 347.969C573.524 348.04 572.276 348.389 571.096 349.244C569.314 350.536 567.41 353.189 566.762 358.538C564.989 373.16 559.164 383.14 552.18 386.632C551.327 387.058 550.418 387.1 549.615 386.993C548.812 386.886 547.987 386.615 547.175 386.265C545.555 385.567 543.676 384.416 541.632 383.009C538.552 380.89 534.854 378.018 530.765 374.842C529.423 373.799 528.039 372.724 526.621 371.632C515.009 362.691 500.904 352.464 487.136 348.016C475.945 344.4 467.902 343.106 462.443 342.922C459.713 342.83 457.662 343.016 456.203 343.312Z" fill="black"/>
<path d="M420.734 359.164C419.342 353.594 420.154 336.535 420.734 328.702V322.609H450.761L453.372 356.988C443.798 373.96 422.475 366.127 420.734 359.164Z" fill="#FEAB98"/>
<path fill-rule="evenodd" clip-rule="evenodd" d="M418.734 320.609H452.615L455.412 357.442L455.114 357.971C449.864 367.277 441.29 369.814 433.907 369.04C430.249 368.657 426.838 367.464 424.187 365.859C421.62 364.306 419.419 362.149 418.794 359.649C418.394 358.048 418.179 355.767 418.067 353.244C417.954 350.683 417.944 347.74 417.995 344.747C418.097 338.798 418.443 332.577 418.734 328.628V320.609ZM422.734 324.609V328.776L422.729 328.85C422.441 332.737 422.095 338.922 421.994 344.816C421.944 347.763 421.955 350.618 422.063 353.068C422.173 355.555 422.379 357.494 422.675 358.679C422.92 359.661 424.037 361.093 426.258 362.437C428.393 363.729 431.237 364.739 434.324 365.062C440.293 365.688 446.993 363.762 451.331 356.52L448.907 324.609H422.734Z" fill="black"/>
<path d="M432.118 263.031C450.723 263.756 459.326 277.219 461.302 283.86C462.214 287.935 463.491 299.255 461.302 311.933C458.566 327.781 435.766 335.931 421.174 329.592C406.582 323.253 398.83 305.141 401.11 291.105C403.39 277.068 408.862 262.126 432.118 263.031Z" fill="#FEAB98"/>
<path fill-rule="evenodd" clip-rule="evenodd" d="M407.222 270.171C412.256 264.235 420.082 260.561 432.196 261.033C451.894 261.8 461.074 276.082 463.219 283.289L463.239 283.356L463.254 283.423C464.218 287.732 465.51 299.317 463.273 312.273C461.748 321.108 454.692 327.55 446.443 330.933C438.186 334.32 428.266 334.854 420.377 331.426C412.558 328.03 406.66 321.523 403.02 314.117C399.383 306.718 397.921 298.262 399.135 290.784C400.287 283.692 402.292 275.984 407.222 270.171ZM410.273 272.758C406.083 277.699 404.212 284.481 403.084 291.425C402.018 297.983 403.292 305.602 406.61 312.353C409.924 319.096 415.197 324.815 421.971 327.758C428.673 330.67 437.45 330.298 444.925 327.232C452.408 324.163 458.12 318.606 459.331 311.593C461.46 299.265 460.225 288.267 459.365 284.365C457.52 278.266 449.489 265.709 432.04 265.03C420.898 264.596 414.359 267.94 410.273 272.758Z" fill="black"/>
<path d="M394.189 328.706C404.981 328.358 410.29 323.339 411.596 320.873C410.29 319.712 406.896 315.215 403.762 306.512C400.629 297.808 405.068 281.707 407.679 274.744C421.953 280.663 429.873 270.828 432.049 265.17C440.462 268.072 457.985 275.963 460.77 284.318C463.555 292.673 459.61 306.947 457.289 313.039C456.94 341.587 483.834 337.409 497.325 331.752C511.946 316.086 501.386 304.046 494.278 299.984C497.412 288.148 487.751 282.867 482.529 281.707C497.847 271.959 490.942 261.399 485.575 257.337C481.745 239.93 470.924 242.251 465.992 245.588C464.251 236.014 456.853 226.875 427.262 232.968C403.588 237.842 398.54 245.733 398.976 249.069C377.739 252.899 382.584 269.522 387.661 277.355C374.432 286.407 378.668 296.213 382.439 299.984C370.69 313.475 380.699 329.141 394.189 328.706Z" fill="#000018"/>
<path d="M307.091 252.135C270.838 275.746 223.155 268.219 203.845 261.504C168.339 248.387 121.154 209.817 102 192.171L176.281 113.937C190.453 126.586 231.315 148.229 281.397 133.613C343.999 115.343 341.663 3.84742 461.728 1.03662C557.78 -1.21203 707.931 100.664 771 151.883L636.92 269C613.561 266.189 553.762 162.189 481.816 146.73C409.871 131.27 352.408 222.621 307.091 252.135Z" fill="#DEEFFF" stroke="black" stroke-width="2"/>
<path d="M145 154.498C171.667 180.165 236.8 223.798 284 192.998C343 154.498 392 49.9982 496.5 74.4982C580.1 94.0982 672 171.998 707.5 208.498" stroke="#000018" stroke-width="5"/>
<path fill-rule="evenodd" clip-rule="evenodd" d="M102.193 368.891C101.445 367.413 99.6398 366.82 98.1614 367.568L12.107 411.099C10.6285 411.846 10.0363 413.651 10.7841 415.13C11.532 416.608 13.3368 417.2 14.8153 416.453L100.87 372.922C102.348 372.174 102.94 370.37 102.193 368.891Z" fill="#000018"/>
<path fill-rule="evenodd" clip-rule="evenodd" d="M114.152 310.846C112.881 311.908 110.989 311.739 109.926 310.468L48.087 236.467C47.0245 235.195 47.1939 233.303 48.4653 232.241C49.7367 231.179 51.6286 231.348 52.691 232.619L114.53 306.62C115.593 307.892 115.423 309.784 114.152 310.846Z" fill="#000018"/>
<path fill-rule="evenodd" clip-rule="evenodd" d="M102.21 352.205C102.493 350.572 101.399 349.019 99.7668 348.736L4.74846 332.251C3.11599 331.967 1.56302 333.061 1.27979 334.694C0.996565 336.326 2.09034 337.879 3.72281 338.162L98.7412 354.648C100.374 354.931 101.927 353.837 102.21 352.205Z" fill="#000018"/>
<path fill-rule="evenodd" clip-rule="evenodd" d="M101.147 327.425C101.754 325.883 100.996 324.141 99.4538 323.534L34.7204 298.057C33.1787 297.451 31.4369 298.208 30.8301 299.75C30.2234 301.292 30.9813 303.034 32.523 303.64L97.2565 329.117C98.7982 329.724 100.54 328.966 101.147 327.425Z" fill="#000018"/>
<path fill-rule="evenodd" clip-rule="evenodd" d="M732.687 368.891C733.435 367.413 735.24 366.82 736.719 367.568L822.773 411.099C824.251 411.846 824.844 413.651 824.096 415.13C823.348 416.608 821.543 417.2 820.065 416.453L734.01 372.922C732.532 372.174 731.94 370.37 732.687 368.891Z" fill="#000018"/>
<path fill-rule="evenodd" clip-rule="evenodd" d="M720.728 310.846C721.999 311.908 723.891 311.739 724.954 310.468L786.793 236.467C787.855 235.195 787.686 233.303 786.415 232.241C785.143 231.179 783.251 231.348 782.189 232.619L720.35 306.62C719.287 307.892 719.457 309.784 720.728 310.846Z" fill="#000018"/>
<path fill-rule="evenodd" clip-rule="evenodd" d="M732.67 352.205C732.387 350.572 733.481 349.019 735.113 348.736L830.131 332.251C831.764 331.967 833.317 333.061 833.6 334.694C833.883 336.326 832.79 337.879 831.157 338.162L736.139 354.648C734.506 354.931 732.953 353.837 732.67 352.205Z" fill="#000018"/>
<path fill-rule="evenodd" clip-rule="evenodd" d="M733.733 327.425C733.126 325.883 733.884 324.141 735.426 323.534L800.159 298.057C801.701 297.451 803.443 298.208 804.05 299.75C804.657 301.292 803.899 303.034 802.357 303.64L737.623 329.117C736.082 329.724 734.34 328.966 733.733 327.425Z" fill="#000018"/>
</svg>
