<svg width="1099" height="744" viewBox="0 0 1099 744" fill="none" xmlns="http://www.w3.org/2000/svg">
<path d="M126.652 298.075C125.803 297.077 123.35 306.333 122.229 311.085C119.399 313.046 107.545 316.076 107.014 317.145C106.484 318.215 120.814 323.918 121.345 324.631C121.876 325.344 124.883 338.176 126.652 337.998C128.422 337.82 131.96 325.344 132.137 324.631C132.314 323.918 146.821 318.749 146.998 317.858C147.175 316.967 133.906 312.511 133.199 312.511C132.491 312.511 127.714 299.322 126.652 298.075Z" fill="#FCFBF0" stroke="black"/>
<path d="M24.0917 382.088C23.0938 380.915 20.2112 391.791 18.8946 397.375C15.5686 399.679 1.64054 403.239 1.0169 404.496C0.39326 405.752 17.2316 412.454 17.8552 413.291C18.4789 414.129 22.0129 429.207 24.0917 428.998C26.1705 428.788 30.3281 414.129 30.536 413.291C30.7438 412.454 47.7901 406.38 47.9979 405.333C48.2058 404.286 32.6148 399.051 31.7832 399.051C30.9517 399.051 25.3389 383.554 24.0917 382.088Z" fill="#FCFBF0" stroke="black"/>
<path d="M843.185 544.229C853.132 485.257 728.517 414.463 664.966 386.438L559.574 437.653C554.344 452.85 550.693 488.987 577.929 511.96C611.974 540.677 738.681 515.809 741.049 540.381C742.665 557.147 694.669 576.103 681.84 576.202L697.235 643.996C741.444 642.319 833.238 603.201 843.185 544.229Z" fill="#2E410D" stroke="black"/>
<path d="M757.628 344.992C741.286 346.413 692.597 367.788 665.558 377.853L528.193 469.331C518.128 479.692 500.661 504.323 511.319 519.955C524.641 539.493 576.152 563.769 611.678 552.223C647.203 540.678 749.339 455.121 757.628 446.239C764.259 439.134 939.202 377.261 984.99 357.13L959.53 297.625C923.709 304.73 773.97 343.571 757.628 344.992Z" fill="#2E410D" stroke="black"/>
<path d="M998.312 286.671C1007.31 295.434 1022.79 329.992 1029.4 346.176C1029.99 349.63 1029.34 357.603 1022 361.866C1012.82 367.195 992.984 370.747 988.247 366.011C983.51 361.274 958.938 302.066 958.938 295.257C958.938 288.447 984.398 278.678 990.615 280.454C995.589 281.875 997.819 285.191 998.312 286.671Z" fill="#04010C" stroke="black"/>
<path d="M692.888 654.063C683.585 645.623 666.903 611.632 659.725 595.691C659.011 592.26 659.381 584.269 666.568 579.75C675.552 574.101 695.249 569.851 700.15 574.418C705.051 578.984 731.695 637.29 731.935 644.094C732.175 650.899 707.076 661.56 700.8 660.004C695.779 658.76 693.434 655.525 692.888 654.063Z" fill="#04010C" stroke="black"/>
<path d="M1032.95 274.237C1033.19 276.606 1009.56 284.106 997.72 287.559C1012.23 308.579 1023.77 343.808 1027.92 344.992C1032.06 346.176 1075.58 312.427 1080.02 310.947C1084.46 309.467 1093.93 308.874 1097.78 304.73C1101.63 300.585 1055.45 203.187 1045.98 200.522C1036.5 197.858 1015.48 212.956 1014.59 232.791C1013.71 252.626 1032.65 271.277 1032.95 274.237Z" fill="#04010C" stroke="black"/>
<path d="M658.711 667.71C658.391 665.351 681.736 657.023 693.449 653.154C678.21 632.659 665.429 597.859 661.246 596.822C657.062 595.784 614.76 631.047 610.375 632.683C605.989 634.319 596.542 635.245 592.842 639.522C589.142 643.8 638.731 739.51 648.293 741.838C657.854 744.167 678.328 728.337 678.516 708.483C678.704 688.629 659.111 670.658 658.711 667.71Z" fill="#04010C" stroke="black"/>
<path d="M677.104 193.121C662.183 195.963 621.941 199.042 603.685 200.226C569.344 207.726 496.102 222.074 477.866 219.469C459.63 216.864 311.291 182.168 261.753 174.47C247.543 178.97 235.701 200.621 236.589 215.917C288.101 236.936 407.644 284.303 418.065 294.961C431.091 308.283 470.761 410.418 468.096 448.312C465.965 478.627 473.721 491.732 477.866 494.495C509.839 423.681 610.395 382.886 656.677 371.34C660.821 318.348 624.112 294.961 618.783 290.52C613.454 286.079 623.224 282.823 643.651 275.718C659.993 270.034 768.088 196.377 798.778 180.687C794.634 160.852 772.726 147.53 763.549 144.273C748.155 149.898 692.025 190.279 677.104 193.121Z" fill="#D3E34A" stroke="black"/>
<path d="M656.085 370.748C668.4 370.037 668.716 375.583 667.334 378.445C619.178 415.155 521.799 491.653 517.536 503.968C513.273 516.284 521.483 528.441 526.121 532.98C518.523 537.717 499.359 544.881 483.491 535.645C467.623 526.408 471.748 503.968 475.794 493.903C505.398 419.595 640.69 371.636 656.085 370.748Z" fill="#04010C" stroke="black"/>
<path d="M462.176 1.28324C481.596 5.07261 515.661 39.177 530.266 55.7555C534.766 64.5183 468.787 73.6169 435.236 77.0708C434.841 65.0316 433.4 40.2428 430.795 37.4008C427.538 33.8482 413.032 45.394 406.223 50.7227C400.776 54.9857 398.625 52.4989 398.23 50.7227C411.453 32.664 442.755 -2.50613 462.176 1.28324Z" fill="#ED87AE" stroke="black"/>
<path d="M406.76 63.224C409.523 63.8161 415.286 64.1122 416.233 60.5596C417.165 57.0664 406.15 54.241 400.247 53.2095C398.826 52.776 398.668 51.0213 398.766 50.1981C399.753 42.5996 399.418 27.6988 390.181 28.883C382.045 29.9261 382.653 40.5405 384.397 47.5737C382.653 43.7144 378.19 37.8282 373.899 42.7969C369.399 48.0073 375.774 56.2176 379.523 59.6715C376.563 59.3754 367.682 58.7833 367.978 65.2963C368.215 70.5067 375.379 70.8225 378.931 70.3291C373.899 74.1777 371.53 78.9144 376.563 80.9867C380.589 82.6446 385.938 79.1118 388.109 77.1381C386.036 82.1709 387.517 90.1641 393.438 88.0918C397.344 86.7244 398.163 81.7721 398.053 78.2515C399.009 82.7583 403.436 88.4275 406.76 83.059C409.838 78.0855 407.253 73.0922 405.575 71.2172C408.24 72.9935 413.805 75.4803 414.753 71.2172C415.7 66.9542 409.819 64.1122 406.76 63.224Z" fill="#FCFBF0"/>
<path d="M399.951 53.1585C400.048 53.175 400.146 53.192 400.247 53.2095M400.247 53.2095C406.15 54.241 417.165 57.0664 416.233 60.5596C415.286 64.1122 409.523 63.8161 406.76 63.224C409.819 64.1122 415.7 66.9542 414.753 71.2172C413.805 75.4803 408.24 72.9935 405.575 71.2172C407.253 73.0922 409.838 78.0855 406.76 83.059C402.911 89.276 397.582 80.6907 397.878 76.25C398.372 79.5065 398.174 86.4339 393.438 88.0918C387.517 90.1641 386.036 82.1709 388.109 77.1381C385.938 79.1118 380.589 82.6446 376.563 80.9867C371.53 78.9144 373.899 74.1777 378.931 70.3291C375.379 70.8225 368.215 70.5067 367.978 65.2963C367.682 58.7834 376.563 59.3754 379.523 59.6715C375.774 56.2176 369.399 48.0073 373.899 42.7969C379.523 36.284 385.444 48.4218 385.148 50.1981C382.977 43.5864 380.945 30.0672 390.181 28.883C399.418 27.6988 399.753 42.5996 398.766 50.1981C398.668 51.0213 398.826 52.776 400.247 53.2095Z" stroke="black"/>
<path d="M559.278 162.036C560.462 151.082 546.252 110.228 542.404 106.675C494.148 98.6823 482.011 106.675 473.721 110.82C465.432 114.965 460.695 144.569 473.721 168.845C486.747 193.121 488.82 195.193 522.865 192.528C556.91 189.864 558.094 172.989 559.278 162.036Z" fill="#FCFBF0" stroke="black"/>
<path d="M567.271 86.8403C571.771 121.418 559.673 134.01 553.061 135.984C550.693 137.046 545.956 112.597 533.226 106.38C520.496 100.163 482.899 100.755 470.169 112.597C457.439 124.439 455.959 152.859 456.255 157.596C456.551 162.332 443.229 160.26 439.084 159.668C434.939 159.076 406.815 143.681 408.591 112.597C410.368 81.5121 448.261 57.828 470.169 50.7229C492.076 43.6178 561.647 43.6178 567.271 86.8403Z" fill="#04010C" stroke="black"/>
<path d="M611.086 185.423C605.639 164.582 572.896 155.621 557.206 153.746C552.469 156.114 557.206 171.51 547.733 182.167C538.259 192.824 504.806 194.601 493.26 191.641C481.715 188.68 477.274 178.023 473.721 167.069C470.169 156.115 479.346 153.746 481.123 134.8C482.899 115.853 472.833 110.82 468.097 113.78C463.36 116.741 452.998 144.273 454.775 153.746C456.551 163.22 468.097 175.95 468.097 182.167C468.097 188.384 457.439 222.429 458.327 229.83C459.215 237.231 463.064 241.968 464.544 236.047C465.728 231.31 468.985 229.929 470.465 229.83C471.55 234.468 476.149 248.718 485.859 268.612C497.997 293.479 529.378 301.473 534.411 301.473C539.443 301.473 531.154 295.848 529.378 291.111C527.602 286.374 548.917 300.585 590.659 301.473C632.344 302.36 659.267 257.486 661.995 252.94L662.006 252.921C664.67 248.481 642.467 257.362 624.112 246.408C605.757 235.455 617.895 211.475 611.086 185.423Z" fill="#04010C" stroke="black"/>
<path d="M231.965 164.124C231.728 172.413 238.38 171.525 241.735 170.045C258.55 170.992 245.583 193.137 236.998 204.09H217.459C202.953 204.09 194.664 199.65 191.407 199.058C188.151 198.465 178.677 204.09 173.348 207.939C168.02 211.787 160.322 209.715 158.842 204.09C157.362 198.465 173.348 194.913 181.342 193.729C189.335 192.545 187.855 188.992 186.078 187.512C184.302 186.032 160.026 189.288 154.105 188.992C148.185 188.696 147 181.591 150.553 178.63C154.105 175.67 182.526 180.999 184.598 176.854C186.67 172.71 180.749 172.414 167.131 167.973C153.513 163.532 147 158.203 147 154.355C147 150.506 153.513 149.026 162.099 152.579C170.684 156.131 188.447 165.901 191.407 161.164C194.368 156.427 178.973 147.25 173.348 144.881C167.724 142.513 160.322 134.224 167.131 130.967C173.94 127.711 201.177 150.506 205.617 152.579C210.058 154.651 212.13 152.579 214.499 147.25C216.867 141.921 211.242 136.592 212.13 130.967C213.018 125.342 219.827 121.198 222.492 125.046C225.156 128.895 222.492 141.921 226.636 147.25C230.781 152.578 232.261 153.763 231.965 164.124Z" fill="#FCFBF0" stroke="black"/>
<path d="M794.568 132.124C795.33 140.382 788.636 139.917 785.194 138.652C768.472 140.663 782.816 161.941 792.078 172.329L811.578 171.091C826.055 170.172 834.046 165.215 837.258 164.418C840.471 163.621 850.281 168.634 855.843 172.137C861.405 175.641 868.956 173.085 870.077 167.378C871.198 161.67 855.018 159.138 846.966 158.462C838.914 157.787 840.166 154.148 841.845 152.558C843.524 150.968 867.957 152.68 873.847 152.01C879.738 151.339 880.469 144.173 876.736 141.444C873.003 138.714 844.978 145.833 842.647 141.828C840.316 137.823 846.206 137.152 859.516 131.858C872.825 126.563 878.987 120.833 878.744 116.992C878.5 113.151 871.906 112.086 863.563 116.176C855.22 120.265 838.112 131.14 834.858 126.6C831.603 122.061 846.385 111.926 851.848 109.207C857.312 106.487 864.173 97.7451 857.171 94.9264C850.17 92.1078 824.432 116.583 820.132 118.933C815.832 121.282 813.632 119.345 810.931 114.177C808.23 109.009 813.506 103.335 812.263 97.7774C811.02 92.2201 803.962 88.5152 801.547 92.5248C799.132 96.5345 802.616 109.365 798.817 114.946C795.019 120.527 793.617 121.802 794.568 132.124Z" fill="#FCFBF0" stroke="black"/>
<path d="M238.07 170.917C245.411 164.759 260.668 171.509 267.378 175.653C265.483 200.758 251.392 215.323 244.582 219.468C226.346 214.495 223.169 207.133 223.859 204.074L238.07 170.917Z" fill="#2E410D" stroke="black"/>
<path d="M788.906 139.289C781.189 133.609 766.391 141.312 759.957 145.873C763.438 170.807 778.424 184.451 785.482 188.156C803.367 182.037 806.072 174.489 805.188 171.48L788.906 139.289Z" fill="#2E410D" stroke="black"/>
<path d="M188.541 382.209C186.141 379.409 179.207 405.376 176.041 418.709C168.041 424.21 134.541 432.709 133.041 435.709C131.541 438.709 172.041 454.709 173.541 456.709C175.041 458.709 183.541 494.709 188.541 494.209C193.541 493.709 203.541 458.709 204.041 456.709C204.541 454.709 245.541 440.209 246.041 437.709C246.541 435.209 209.041 422.709 207.041 422.709C205.041 422.709 191.541 385.709 188.541 382.209Z" fill="#FCFBF0" stroke="black"/>
<path d="M931.022 29.1027C929.854 27.7303 926.481 40.4574 924.941 46.9926C921.048 49.6885 904.75 53.8542 904.02 55.3246C903.29 56.795 922.994 64.6372 923.724 65.6174C924.454 66.5977 928.59 84.2425 931.022 83.9975C933.455 83.7524 938.32 66.5977 938.563 65.6174C938.807 64.6372 958.754 57.5302 958.998 56.3049C959.241 55.0795 940.996 48.9529 940.023 48.9529C939.05 48.9529 932.482 30.8181 931.022 29.1027Z" fill="#FCFBF0" stroke="black"/>
<path d="M984.283 99.0467C983.752 98.4229 982.219 104.208 981.518 107.178C979.749 108.404 972.341 110.297 972.009 110.966C971.677 111.634 980.634 115.199 980.966 115.644C981.297 116.09 983.177 124.11 984.283 123.999C985.389 123.887 987.6 116.09 987.711 115.644C987.821 115.199 996.888 111.968 996.999 111.411C997.109 110.854 988.816 108.069 988.374 108.069C987.932 108.069 984.946 99.8264 984.283 99.0467Z" fill="#FCFBF0" stroke="black"/>
<path d="M1011.69 21.0672C1010.92 20.1689 1008.71 28.4994 1007.71 32.7769C1005.16 34.5416 994.491 37.2682 994.013 38.2307C993.535 39.1931 1006.43 44.3261 1006.91 44.9678C1007.39 45.6094 1010.09 57.1588 1011.69 56.9983C1013.28 56.8379 1016.46 45.6094 1016.62 44.9678C1016.78 44.3261 1029.84 39.6743 1030 38.8723C1030.16 38.0702 1018.22 34.0601 1017.58 34.0601C1016.94 34.0601 1012.64 22.19 1011.69 21.0672Z" fill="#FCFBF0" stroke="black"/>
</svg>
