<svg width="673" height="761" viewBox="0 0 673 761" fill="none" xmlns="http://www.w3.org/2000/svg">
<g filter="url(#filter0_d_124_1743)">
<circle cx="386" cy="79" r="50" fill="white"/>
</g>
<g clip-path="url(#clip0_124_1743)">
<path d="M363.045 91.605V66.3084L384.954 53.6573V78.9553L406.865 66.3084V91.6053L384.954 104.256L363.045 91.605ZM382.32 49.0907L360.411 61.741L357.775 63.265V94.6532L360.411 96.1748L382.321 108.826L384.954 110.348L387.591 108.824L409.5 96.1727L412.134 94.6506V63.2635L409.5 61.7395L387.591 49.0905L384.954 47.5737L382.32 49.0907Z" fill="url(#paint0_linear_124_1743)"/>
</g>
<g filter="url(#filter1_d_124_1743)">
<circle cx="59" cy="397" r="30" fill="white"/>
</g>
<path d="M49.4064 403.348C56.8445 405.857 63.1743 406.346 70.3474 402.44C70.2948 402.508 68.8759 404.325 65.1446 405.256C65.9329 406.188 67.0102 407.255 67.0102 407.255C69.4014 407.255 71.74 406.665 73.7633 405.529C75.3399 404.62 76.2332 403.053 76.0493 401.418C75.734 398.624 74.9719 395.899 73.7896 393.287C72.2918 389.88 68.6919 387.518 64.514 387.177C64.1461 387.154 63.8834 387.154 63.7257 387.154L63.3053 387.518C68.1139 388.699 70.5051 390.539 70.5576 390.607C63.1739 387.381 54.4501 387.336 47.0138 390.47C47.0138 390.47 49.3787 388.449 54.6077 387.381L54.2924 387.109C53.7406 387.109 53.215 387.154 52.6633 387.222C48.8006 387.79 45.5687 390.084 44.176 393.241C42.9672 395.967 42.179 398.829 41.8899 401.736C41.7323 403.28 42.5731 404.802 44.0446 405.688C45.989 406.801 48.3014 407.391 50.64 407.391C50.64 407.391 51.5859 406.324 52.5319 405.37C48.9846 404.461 47.5394 402.644 47.5131 402.576L48.1807 402.871C48.5798 403.047 48.9889 403.207 49.4064 403.348ZM53.5304 401.373C51.8224 401.327 50.4823 400.078 50.5349 398.579C50.5875 397.171 51.9013 396.035 53.5304 395.99C55.2384 396.035 56.5785 397.284 56.5259 398.783C56.4471 400.192 55.1595 401.327 53.5304 401.373ZM64.2512 401.373C62.5432 401.327 61.2031 400.078 61.2557 398.579C61.3082 397.171 62.622 396.035 64.2512 395.99C65.9592 396.035 67.2993 397.284 67.2467 398.783C67.1942 400.192 65.8803 401.327 64.2512 401.373Z" fill="#FF7B57"/>
<g filter="url(#filter2_d_124_1743)">
<circle cx="202" cy="702" r="30" fill="white"/>
</g>
<g clip-path="url(#clip1_124_1743)">
<path d="M200.494 703.193L192.489 698.73C192.229 698.585 191.891 698.601 191.65 698.768L186.268 702.512C185.886 702.777 185.917 703.287 186.329 703.517L194.334 707.979C194.594 708.124 194.932 708.109 195.173 707.941L200.555 704.197C200.937 703.932 200.906 703.422 200.494 703.193Z" fill="#1587EA"/>
<path d="M202.681 704.197L208.063 707.941C208.304 708.109 208.642 708.124 208.902 707.979L216.907 703.517C217.319 703.287 217.35 702.777 216.968 702.512L211.586 698.768C211.345 698.601 211.007 698.585 210.747 698.73L202.742 703.193C202.331 703.422 202.3 703.932 202.681 704.197Z" fill="#1587EA"/>
<path d="M200.555 692.479L195.173 688.735C194.932 688.568 194.594 688.552 194.334 688.697L186.329 693.16C185.917 693.389 185.886 693.899 186.268 694.164L191.65 697.908C191.891 698.075 192.229 698.091 192.489 697.946L200.494 693.483C200.906 693.254 200.937 692.744 200.555 692.479Z" fill="#1587EA"/>
<path d="M216.907 693.16L208.902 688.697C208.642 688.552 208.304 688.568 208.063 688.735L202.681 692.479C202.3 692.744 202.33 693.254 202.742 693.483L210.748 697.946C211.007 698.091 211.345 698.075 211.586 697.908L216.969 694.164C217.35 693.899 217.319 693.389 216.907 693.16Z" fill="#1587EA"/>
<path d="M201.227 704.856L195.2 709.012C194.981 709.162 194.676 709.176 194.441 709.045L192.956 708.217C192.523 707.975 191.952 708.244 191.952 708.689V709.137C191.952 709.334 192.071 709.516 192.266 709.618L201.239 714.32C201.447 714.429 201.707 714.429 201.914 714.32L210.888 709.618C211.082 709.516 211.201 709.334 211.201 709.137V708.737C211.201 708.292 210.63 708.023 210.197 708.265L208.799 709.044C208.564 709.175 208.258 709.162 208.039 709.01L202.04 704.856C201.803 704.692 201.465 704.692 201.227 704.856Z" fill="#1587EA"/>
</g>
<g filter="url(#filter3_d_124_1743)">
<circle cx="229" cy="94" r="30" fill="white"/>
</g>
<g clip-path="url(#clip2_124_1743)">
<path d="M241.477 84.5688C240.245 84.5688 238.459 85.3107 237.574 87.4981C236.397 90.4039 234.376 95.4351 233.658 97.23C233.043 98.7668 232.661 98.9003 232.136 98.9003C231.443 98.9003 230.881 98.3799 230.881 97.1038V88.8081C230.881 83.6868 227.442 79.5404 222.356 79.327C217.214 79.1084 213 83.2927 213 88.4603V105.07C213 107.185 214.726 108.892 216.828 108.737C218.672 108.601 220.125 107.057 220.125 105.171V90.3868C220.125 87.5739 221.714 86.5095 223.059 86.5095C225.11 86.5095 225.993 88.3089 225.993 90.1021V98.2635C225.993 101.344 228.379 103.941 231.445 104.081C234.45 104.219 236.422 102.518 237.424 99.6895C238.102 97.7781 239.548 93.8027 240.665 90.6616C240.924 89.934 241.178 89.6184 241.571 89.6184C242.339 89.6184 242.339 90.5452 242.339 91.4471V98.9463C242.339 100.092 243.325 100.831 244.433 100.497C245.15 100.282 245.552 99.5579 245.552 98.6324V90.1343C245.552 86.0481 243.922 84.5688 241.477 84.5688Z" fill="#2A5270"/>
</g>
<g filter="url(#filter4_d_124_1743)">
<circle cx="203" cy="392" r="35" fill="white"/>
</g>
<path d="M197.396 393.172C194.97 393.172 192.996 395.05 192.996 397.357V407.815C192.996 410.123 194.97 412 197.396 412C199.822 412 201.795 410.123 201.795 407.815V397.357C201.795 395.05 199.822 393.172 197.396 393.172Z" fill="#FF4340"/>
<path d="M190.532 393.172H186.273C183.924 393.172 182.014 394.99 182.014 397.224C182.014 399.458 183.924 401.275 186.273 401.275C188.621 401.275 190.532 399.458 190.532 397.224V393.172Z" fill="#FF4340"/>
<path d="M182 386.643C182 388.951 183.974 390.828 186.4 390.828H197.394C199.82 390.828 201.793 388.951 201.793 386.643C201.793 384.335 199.82 382.458 197.394 382.458H186.4C183.974 382.458 182 384.335 182 386.643V386.643Z" fill="#36C6FF"/>
<path d="M197.537 380.115H201.796V376.063C201.796 373.829 199.885 372.012 197.537 372.012C195.188 372.012 193.277 373.829 193.277 376.063C193.277 378.297 195.188 380.115 197.537 380.115Z" fill="#36C6FF"/>
<path d="M208.659 390.828C211.085 390.828 213.059 388.951 213.059 386.643V376.185C213.059 373.877 211.085 372 208.659 372C206.233 372 204.26 373.877 204.26 376.185V386.643C204.26 388.951 206.233 390.828 208.659 390.828Z" fill="#0DC46E"/>
<path d="M215.523 390.828H219.783C222.131 390.828 224.042 389.01 224.042 386.776C224.042 384.542 222.131 382.725 219.783 382.725C217.434 382.725 215.523 384.542 215.523 386.776V390.828Z" fill="#0DC46E"/>
<path d="M224.053 397.357C224.053 395.05 222.08 393.172 219.654 393.172H208.659C206.233 393.172 204.26 395.05 204.26 397.357C204.26 399.665 206.233 401.542 208.659 401.542H219.654C222.08 401.542 224.053 399.665 224.053 397.357Z" fill="#FDCB02"/>
<path d="M208.519 403.886H204.26V407.938C204.26 410.172 206.171 411.989 208.519 411.989C210.868 411.989 212.778 410.172 212.778 407.938C212.778 405.704 210.868 403.886 208.519 403.886Z" fill="#FDCB02"/>
<g filter="url(#filter5_d_124_1743)">
<circle cx="279" cy="604" r="35" fill="white"/>
</g>
<g clip-path="url(#clip3_124_1743)">
<path d="M289.457 602.792C289.778 602.754 290.086 602.752 290.368 602.792C290.532 602.417 290.56 601.77 290.413 601.065C290.194 600.018 289.898 599.385 289.286 599.483C288.674 599.582 288.652 600.34 288.87 601.388C288.993 601.977 289.213 602.48 289.457 602.792Z" fill="black"/>
<path d="M284.203 603.621C284.641 603.813 284.91 603.94 285.016 603.829C285.083 603.76 285.063 603.627 284.958 603.456C284.742 603.104 284.298 602.746 283.826 602.545C282.862 602.13 281.712 602.268 280.825 602.906C280.532 603.12 280.254 603.417 280.294 603.598C280.307 603.656 280.351 603.7 280.453 603.715C280.695 603.742 281.539 603.316 282.511 603.256C283.197 603.214 283.765 603.429 284.203 603.621Z" fill="black"/>
<path d="M283.323 604.123C282.752 604.213 282.438 604.401 282.236 604.576C282.064 604.727 281.957 604.893 281.958 605.01C281.958 605.066 281.983 605.098 282.002 605.114C282.028 605.137 282.058 605.15 282.095 605.15C282.224 605.15 282.513 605.034 282.513 605.034C283.306 604.75 283.83 604.784 284.348 604.844C284.635 604.876 284.77 604.894 284.833 604.795C284.852 604.767 284.874 604.706 284.817 604.613C284.684 604.396 284.108 604.03 283.323 604.123Z" fill="black"/>
<path d="M287.682 605.968C288.069 606.158 288.496 606.084 288.634 605.801C288.773 605.519 288.572 605.136 288.185 604.946C287.797 604.755 287.371 604.83 287.232 605.112C287.094 605.395 287.295 605.778 287.682 605.968Z" fill="black"/>
<path d="M290.172 603.793C289.857 603.788 289.596 604.133 289.589 604.564C289.582 604.996 289.831 605.35 290.145 605.355C290.46 605.36 290.721 605.015 290.728 604.584C290.735 604.152 290.486 603.798 290.172 603.793Z" fill="black"/>
<path d="M269.045 611.57C268.967 611.472 268.839 611.502 268.714 611.531C268.627 611.551 268.529 611.574 268.421 611.572C268.189 611.568 267.994 611.469 267.884 611.3C267.74 611.08 267.749 610.752 267.907 610.376C267.928 610.326 267.953 610.269 267.98 610.208C268.233 609.642 268.655 608.695 268.181 607.792C267.824 607.113 267.242 606.69 266.543 606.601C265.871 606.516 265.18 606.765 264.739 607.251C264.043 608.019 263.934 609.064 264.069 609.433C264.118 609.568 264.195 609.605 264.251 609.613C264.369 609.629 264.544 609.543 264.654 609.248C264.662 609.226 264.673 609.194 264.686 609.152C264.734 608.996 264.825 608.705 264.974 608.473C265.154 608.192 265.434 607.999 265.763 607.928C266.097 607.857 266.439 607.92 266.726 608.108C267.213 608.427 267.401 609.024 267.193 609.594C267.085 609.889 266.91 610.452 266.949 610.915C267.027 611.853 267.603 612.229 268.121 612.269C268.625 612.288 268.977 612.005 269.066 611.799C269.118 611.676 269.074 611.602 269.045 611.57Z" fill="black"/>
<path d="M298.108 609.856C298.089 609.789 297.964 609.332 297.793 608.782C297.621 608.232 297.443 607.845 297.443 607.845C298.131 606.815 298.144 605.893 298.052 605.372C297.955 604.725 297.685 604.173 297.143 603.604C296.6 603.034 295.49 602.45 293.93 602.012C293.751 601.962 293.163 601.801 293.111 601.785C293.107 601.751 293.068 599.855 293.032 599.041C293.007 598.453 292.956 597.534 292.671 596.629C292.331 595.405 291.74 594.333 291.001 593.648C293.039 591.534 294.312 589.207 294.309 587.21C294.303 583.369 289.587 582.207 283.774 584.614C283.768 584.616 282.552 585.132 282.543 585.137C282.537 585.131 280.316 582.952 280.283 582.923C273.656 577.143 252.937 600.173 259.561 605.767L261.009 606.993C260.634 607.966 260.486 609.08 260.607 610.279C260.761 611.818 261.555 613.294 262.842 614.434C264.064 615.517 265.67 616.202 267.229 616.2C269.807 622.141 275.697 625.785 282.603 625.99C290.011 626.21 296.23 622.734 298.835 616.49C299.006 616.052 299.729 614.077 299.729 612.334C299.729 610.582 298.739 609.856 298.108 609.856ZM267.799 614.532C267.574 614.57 267.344 614.585 267.113 614.58C264.875 614.52 262.458 612.506 262.218 610.117C261.953 607.476 263.302 605.444 265.691 604.962C265.976 604.905 266.321 604.872 266.693 604.891C268.032 604.964 270.004 605.992 270.455 608.907C270.854 611.49 270.22 614.119 267.799 614.532ZM265.3 603.383C263.813 603.672 262.502 604.515 261.701 605.679C261.222 605.279 260.329 604.506 260.172 604.205C258.892 601.775 261.568 597.051 263.438 594.384C268.057 587.791 275.293 582.801 278.643 583.706C279.187 583.86 280.991 585.951 280.991 585.951C280.991 585.951 277.642 587.809 274.537 590.398C270.354 593.62 267.193 598.302 265.3 603.383ZM273.833 594.357C275.475 592.459 277.497 590.809 279.308 589.882C279.371 589.85 279.437 589.918 279.403 589.98C279.259 590.24 278.982 590.798 278.895 591.221C278.881 591.287 278.953 591.336 279.008 591.298C280.135 590.53 282.095 589.707 283.814 589.602C283.888 589.597 283.924 589.692 283.865 589.737C283.604 589.937 283.318 590.215 283.109 590.496C283.074 590.543 283.107 590.612 283.166 590.613C284.374 590.621 286.076 591.044 287.185 591.666C287.26 591.708 287.206 591.853 287.122 591.834C285.444 591.449 282.697 591.158 279.843 591.854C277.295 592.475 275.351 593.434 273.932 594.466C273.861 594.518 273.775 594.424 273.833 594.357ZM298.184 612.924C297.862 614.873 297.034 616.455 295.641 617.91C294.794 618.823 293.765 619.616 292.588 620.193C291.963 620.521 291.297 620.805 290.594 621.035C285.345 622.749 279.972 620.864 278.24 616.817C278.102 616.513 277.985 616.194 277.893 615.861C277.155 613.194 277.782 609.994 279.74 607.98C279.74 607.98 279.74 607.98 279.74 607.979C279.861 607.851 279.984 607.7 279.984 607.51C279.984 607.351 279.883 607.183 279.795 607.064C279.11 606.071 276.737 604.377 277.213 601.099C277.555 598.745 279.614 597.086 281.534 597.185C281.696 597.193 281.859 597.203 282.021 597.213C282.853 597.262 283.579 597.369 284.264 597.397C285.41 597.447 286.441 597.28 287.662 596.263C288.074 595.92 288.404 595.622 288.962 595.527C289.021 595.517 289.167 595.465 289.459 595.479C289.757 595.495 290.041 595.577 290.296 595.746C291.275 596.398 291.413 597.975 291.464 599.129C291.493 599.788 291.573 601.381 291.6 601.839C291.662 602.885 291.937 603.033 292.494 603.216C292.807 603.319 293.097 603.395 293.525 603.516C294.821 603.879 295.589 604.248 296.073 604.723C296.362 605.019 296.496 605.333 296.538 605.634C296.69 606.748 295.672 608.125 292.977 609.376C290.031 610.743 286.457 611.09 283.988 610.815C283.798 610.794 283.125 610.717 283.122 610.717C281.147 610.451 280.02 613.004 281.206 614.753C281.97 615.88 284.051 616.613 286.133 616.614C290.907 616.614 294.577 614.576 295.942 612.815C295.983 612.762 295.987 612.756 296.051 612.659C296.118 612.558 296.063 612.502 295.979 612.559C294.864 613.322 289.91 616.352 284.612 615.44C284.612 615.44 283.968 615.335 283.38 615.106C282.913 614.924 281.936 614.475 281.817 613.472C286.093 614.794 288.785 613.544 288.785 613.544C288.834 613.524 288.868 613.468 288.862 613.413C288.855 613.345 288.795 613.296 288.727 613.303C288.727 613.303 285.222 613.821 281.911 612.609C282.271 611.437 283.23 611.86 284.68 611.977C287.292 612.133 289.634 611.751 291.365 611.255C292.864 610.824 294.834 609.976 296.364 608.768C296.88 609.902 297.062 611.149 297.062 611.149C297.062 611.149 297.461 611.078 297.795 611.283C298.11 611.478 298.342 611.881 298.184 612.924Z" fill="black"/>
</g>
<g filter="url(#filter6_d_124_1743)">
<circle cx="172" cy="258" r="50" fill="white"/>
</g>
<path d="M187.268 247.268V239.783C188.257 239.32 189.094 238.587 189.683 237.667C190.271 236.747 190.586 235.679 190.591 234.587V234.416C190.591 231.232 188.01 228.651 184.827 228.651H184.655C181.472 228.651 178.891 231.232 178.891 234.416V234.587C178.896 235.679 179.211 236.747 179.8 237.667C180.388 238.587 181.225 239.32 182.215 239.783V247.268C179.372 247.703 176.694 248.882 174.453 250.685L153.925 234.695C154.071 234.167 154.148 233.624 154.156 233.078C154.159 231.794 153.78 230.537 153.069 229.468C152.357 228.398 151.344 227.564 150.158 227.07C148.972 226.576 147.666 226.445 146.406 226.694C145.146 226.942 143.987 227.559 143.078 228.466C142.168 229.373 141.547 230.529 141.295 231.789C141.042 233.048 141.169 234.354 141.659 235.542C142.149 236.73 142.98 237.745 144.047 238.46C145.114 239.175 146.369 239.558 147.654 239.56C148.778 239.554 149.88 239.254 150.852 238.69L171.067 254.42C167.35 260.034 167.45 267.351 171.317 272.862L165.169 279.012C164.672 278.853 164.154 278.769 163.632 278.762C160.688 278.764 158.302 281.152 158.303 284.097C158.304 287.041 160.691 289.428 163.635 289.428C166.579 289.429 168.967 287.044 168.97 284.099C168.963 283.578 168.878 283.06 168.719 282.563L174.802 276.479C180.236 280.662 187.7 281.023 193.513 277.382C199.325 273.741 202.258 266.868 200.866 260.153C199.473 253.437 194.049 248.297 187.268 247.268ZM184.747 271.886C183.623 271.916 182.505 271.721 181.458 271.312C180.411 270.903 179.456 270.288 178.651 269.504C177.845 268.72 177.205 267.782 176.768 266.747C176.331 265.711 176.106 264.598 176.106 263.474C176.106 262.35 176.331 261.238 176.768 260.202C177.205 259.166 177.845 258.229 178.651 257.445C179.456 256.661 180.411 256.046 181.458 255.637C182.505 255.228 183.623 255.033 184.747 255.063C189.275 255.221 192.864 258.937 192.867 263.468C192.869 267.999 189.283 271.718 184.755 271.882" fill="#FF7A59"/>
<g filter="url(#filter7_d_124_1743)">
<circle cx="172" cy="526" r="50" fill="white"/>
</g>
<g clip-path="url(#clip4_124_1743)">
<path d="M183.759 548.877C180.69 545.809 180.69 540.831 183.759 537.759C177.619 543.899 167.666 543.899 161.526 537.759C164.594 540.828 164.594 545.806 161.526 548.877C158.457 551.946 153.479 551.946 150.408 548.877C162.668 561.137 182.616 561.137 194.876 548.877C191.805 551.946 186.827 551.946 183.759 548.877Z" fill="#FBBC04"/>
<path d="M194.876 504.409C182.616 492.149 162.668 492.149 150.408 504.409C138.148 516.669 138.148 536.617 150.408 548.877C147.34 545.809 147.34 540.831 150.408 537.76C153.477 534.691 158.455 534.691 161.526 537.76C155.386 531.62 155.386 521.666 161.526 515.527C167.666 509.387 177.619 509.387 183.759 515.527C186.827 518.595 191.805 518.595 194.876 515.527C197.945 512.455 197.945 507.48 194.876 504.409Z" fill="#4184F3"/>
<path d="M155.965 551.178C160.307 551.178 163.827 547.659 163.827 543.317C163.827 538.975 160.307 535.455 155.965 535.455C151.623 535.455 148.104 538.975 148.104 543.317C148.104 547.659 151.623 551.178 155.965 551.178Z" fill="#34A853"/>
<path d="M194.876 504.409C197.945 507.477 197.945 512.455 194.876 515.526C191.808 518.595 186.83 518.595 183.758 515.526C189.898 521.666 189.898 531.619 183.758 537.759C180.69 540.828 180.69 545.806 183.758 548.877C186.827 551.945 191.805 551.945 194.876 548.877C207.134 536.617 207.134 516.669 194.876 504.409Z" fill="#EA4335"/>
</g>
<g filter="url(#filter8_d_124_1743)">
<circle cx="386" cy="682" r="50" fill="white"/>
</g>
<g clip-path="url(#clip5_124_1743)">
<path d="M358.093 669.141L383.718 683.722V713.428L358.093 698.847V669.141Z" fill="#4E5859"/>
<path d="M413.496 669.141L387.87 683.722V713.428L413.496 698.847V669.141Z" fill="#6DBE4C"/>
<path d="M359.92 665.407L385.351 680.326L411.087 665.49L385.656 650.571L359.92 665.407Z" fill="#4E5859"/>
</g>
<g filter="url(#filter9_d_124_1743)">
<circle cx="305" cy="213" r="35" fill="white"/>
</g>
<g clip-path="url(#clip6_124_1743)">
<path d="M285.157 228.004H292.519V212.55L287.698 205.273L282.002 205.732V225.277C282.002 226.784 283.414 228.004 285.157 228.004Z" fill="#0085F7"/>
<path d="M317.761 228.004H325.123C326.866 228.004 328.278 226.784 328.278 225.277V205.732L322.59 205.273L317.761 212.55V228.004H317.761Z" fill="#00A94B"/>
<path d="M317.762 200.731L313.438 207.864L317.762 212.549L328.279 205.731V202.094C328.279 198.724 323.828 196.799 320.707 198.822L317.762 200.731Z" fill="#FFBC00"/>
<path fill-rule="evenodd" clip-rule="evenodd" d="M292.519 212.549L288.398 205.024L292.519 200.73L305.14 208.912L317.761 200.73V212.549L305.14 220.73L292.519 212.549Z" fill="#FF4131"/>
<path d="M282.002 202.094V205.731L292.519 212.549V200.731L289.574 198.822C286.453 196.799 282.002 198.724 282.002 202.094Z" fill="#E51C19"/>
</g>
<path d="M673 395.5C673 499.053 589.053 583 485.5 583C381.947 583 298 499.053 298 395.5C298 291.947 381.947 208 485.5 208C589.053 208 673 291.947 673 395.5ZM377.188 395.5C377.188 455.319 425.681 503.812 485.5 503.812C545.319 503.812 593.812 455.319 593.812 395.5C593.812 335.681 545.319 287.188 485.5 287.188C425.681 287.188 377.188 335.681 377.188 395.5Z" fill="#EAECFF"/>
<circle cx="485.5" cy="395.5" r="127.5" fill="white"/>
<path d="M422.842 401.921C422.842 415.583 426.893 428.939 434.484 440.299C442.074 451.659 452.863 460.513 465.485 465.741C478.108 470.97 491.997 472.338 505.397 469.672C518.797 467.007 531.106 460.428 540.767 450.767C550.427 441.106 557.006 428.797 559.672 415.397C562.337 401.997 560.969 388.108 555.741 375.485C550.513 362.863 541.659 352.074 530.299 344.484C518.939 336.893 505.583 332.842 491.921 332.842L491.921 401.921L422.842 401.921Z" fill="url(#paint1_linear_124_1743)"/>
<path d="M480.079 321C461.758 321 444.187 328.278 431.233 341.233C418.278 354.188 411 371.758 411 390.079L480.079 390.079V321Z" fill="#5765FC"/>
<defs>
<filter id="filter0_d_124_1743" x="307" y="0" width="158" height="158" filterUnits="userSpaceOnUse" color-interpolation-filters="sRGB">
<feFlood flood-opacity="0" result="BackgroundImageFix"/>
<feColorMatrix in="SourceAlpha" type="matrix" values="0 0 0 0 0 0 0 0 0 0 0 0 0 0 0 0 0 0 127 0" result="hardAlpha"/>
<feOffset/>
<feGaussianBlur stdDeviation="14.5"/>
<feComposite in2="hardAlpha" operator="out"/>
<feColorMatrix type="matrix" values="0 0 0 0 0.34151 0 0 0 0 0.396398 0 0 0 0 0.9875 0 0 0 0.2 0"/>
<feBlend mode="normal" in2="BackgroundImageFix" result="effect1_dropShadow_124_1743"/>
<feBlend mode="normal" in="SourceGraphic" in2="effect1_dropShadow_124_1743" result="shape"/>
</filter>
<filter id="filter1_d_124_1743" x="0" y="338" width="118" height="118" filterUnits="userSpaceOnUse" color-interpolation-filters="sRGB">
<feFlood flood-opacity="0" result="BackgroundImageFix"/>
<feColorMatrix in="SourceAlpha" type="matrix" values="0 0 0 0 0 0 0 0 0 0 0 0 0 0 0 0 0 0 127 0" result="hardAlpha"/>
<feOffset/>
<feGaussianBlur stdDeviation="14.5"/>
<feComposite in2="hardAlpha" operator="out"/>
<feColorMatrix type="matrix" values="0 0 0 0 0.34151 0 0 0 0 0.396398 0 0 0 0 0.9875 0 0 0 0.2 0"/>
<feBlend mode="normal" in2="BackgroundImageFix" result="effect1_dropShadow_124_1743"/>
<feBlend mode="normal" in="SourceGraphic" in2="effect1_dropShadow_124_1743" result="shape"/>
</filter>
<filter id="filter2_d_124_1743" x="143" y="643" width="118" height="118" filterUnits="userSpaceOnUse" color-interpolation-filters="sRGB">
<feFlood flood-opacity="0" result="BackgroundImageFix"/>
<feColorMatrix in="SourceAlpha" type="matrix" values="0 0 0 0 0 0 0 0 0 0 0 0 0 0 0 0 0 0 127 0" result="hardAlpha"/>
<feOffset/>
<feGaussianBlur stdDeviation="14.5"/>
<feComposite in2="hardAlpha" operator="out"/>
<feColorMatrix type="matrix" values="0 0 0 0 0.34151 0 0 0 0 0.396398 0 0 0 0 0.9875 0 0 0 0.2 0"/>
<feBlend mode="normal" in2="BackgroundImageFix" result="effect1_dropShadow_124_1743"/>
<feBlend mode="normal" in="SourceGraphic" in2="effect1_dropShadow_124_1743" result="shape"/>
</filter>
<filter id="filter3_d_124_1743" x="170" y="35" width="118" height="118" filterUnits="userSpaceOnUse" color-interpolation-filters="sRGB">
<feFlood flood-opacity="0" result="BackgroundImageFix"/>
<feColorMatrix in="SourceAlpha" type="matrix" values="0 0 0 0 0 0 0 0 0 0 0 0 0 0 0 0 0 0 127 0" result="hardAlpha"/>
<feOffset/>
<feGaussianBlur stdDeviation="14.5"/>
<feComposite in2="hardAlpha" operator="out"/>
<feColorMatrix type="matrix" values="0 0 0 0 0.34151 0 0 0 0 0.396398 0 0 0 0 0.9875 0 0 0 0.2 0"/>
<feBlend mode="normal" in2="BackgroundImageFix" result="effect1_dropShadow_124_1743"/>
<feBlend mode="normal" in="SourceGraphic" in2="effect1_dropShadow_124_1743" result="shape"/>
</filter>
<filter id="filter4_d_124_1743" x="139" y="328" width="128" height="128" filterUnits="userSpaceOnUse" color-interpolation-filters="sRGB">
<feFlood flood-opacity="0" result="BackgroundImageFix"/>
<feColorMatrix in="SourceAlpha" type="matrix" values="0 0 0 0 0 0 0 0 0 0 0 0 0 0 0 0 0 0 127 0" result="hardAlpha"/>
<feOffset/>
<feGaussianBlur stdDeviation="14.5"/>
<feComposite in2="hardAlpha" operator="out"/>
<feColorMatrix type="matrix" values="0 0 0 0 0.34151 0 0 0 0 0.396398 0 0 0 0 0.9875 0 0 0 0.2 0"/>
<feBlend mode="normal" in2="BackgroundImageFix" result="effect1_dropShadow_124_1743"/>
<feBlend mode="normal" in="SourceGraphic" in2="effect1_dropShadow_124_1743" result="shape"/>
</filter>
<filter id="filter5_d_124_1743" x="215" y="540" width="128" height="128" filterUnits="userSpaceOnUse" color-interpolation-filters="sRGB">
<feFlood flood-opacity="0" result="BackgroundImageFix"/>
<feColorMatrix in="SourceAlpha" type="matrix" values="0 0 0 0 0 0 0 0 0 0 0 0 0 0 0 0 0 0 127 0" result="hardAlpha"/>
<feOffset/>
<feGaussianBlur stdDeviation="14.5"/>
<feComposite in2="hardAlpha" operator="out"/>
<feColorMatrix type="matrix" values="0 0 0 0 0.34151 0 0 0 0 0.396398 0 0 0 0 0.9875 0 0 0 0.2 0"/>
<feBlend mode="normal" in2="BackgroundImageFix" result="effect1_dropShadow_124_1743"/>
<feBlend mode="normal" in="SourceGraphic" in2="effect1_dropShadow_124_1743" result="shape"/>
</filter>
<filter id="filter6_d_124_1743" x="93" y="179" width="158" height="158" filterUnits="userSpaceOnUse" color-interpolation-filters="sRGB">
<feFlood flood-opacity="0" result="BackgroundImageFix"/>
<feColorMatrix in="SourceAlpha" type="matrix" values="0 0 0 0 0 0 0 0 0 0 0 0 0 0 0 0 0 0 127 0" result="hardAlpha"/>
<feOffset/>
<feGaussianBlur stdDeviation="14.5"/>
<feComposite in2="hardAlpha" operator="out"/>
<feColorMatrix type="matrix" values="0 0 0 0 0.34151 0 0 0 0 0.396398 0 0 0 0 0.9875 0 0 0 0.2 0"/>
<feBlend mode="normal" in2="BackgroundImageFix" result="effect1_dropShadow_124_1743"/>
<feBlend mode="normal" in="SourceGraphic" in2="effect1_dropShadow_124_1743" result="shape"/>
</filter>
<filter id="filter7_d_124_1743" x="93" y="447" width="158" height="158" filterUnits="userSpaceOnUse" color-interpolation-filters="sRGB">
<feFlood flood-opacity="0" result="BackgroundImageFix"/>
<feColorMatrix in="SourceAlpha" type="matrix" values="0 0 0 0 0 0 0 0 0 0 0 0 0 0 0 0 0 0 127 0" result="hardAlpha"/>
<feOffset/>
<feGaussianBlur stdDeviation="14.5"/>
<feComposite in2="hardAlpha" operator="out"/>
<feColorMatrix type="matrix" values="0 0 0 0 0.34151 0 0 0 0 0.396398 0 0 0 0 0.9875 0 0 0 0.2 0"/>
<feBlend mode="normal" in2="BackgroundImageFix" result="effect1_dropShadow_124_1743"/>
<feBlend mode="normal" in="SourceGraphic" in2="effect1_dropShadow_124_1743" result="shape"/>
</filter>
<filter id="filter8_d_124_1743" x="307" y="603" width="158" height="158" filterUnits="userSpaceOnUse" color-interpolation-filters="sRGB">
<feFlood flood-opacity="0" result="BackgroundImageFix"/>
<feColorMatrix in="SourceAlpha" type="matrix" values="0 0 0 0 0 0 0 0 0 0 0 0 0 0 0 0 0 0 127 0" result="hardAlpha"/>
<feOffset/>
<feGaussianBlur stdDeviation="14.5"/>
<feComposite in2="hardAlpha" operator="out"/>
<feColorMatrix type="matrix" values="0 0 0 0 0.34151 0 0 0 0 0.396398 0 0 0 0 0.9875 0 0 0 0.2 0"/>
<feBlend mode="normal" in2="BackgroundImageFix" result="effect1_dropShadow_124_1743"/>
<feBlend mode="normal" in="SourceGraphic" in2="effect1_dropShadow_124_1743" result="shape"/>
</filter>
<filter id="filter9_d_124_1743" x="241" y="149" width="128" height="128" filterUnits="userSpaceOnUse" color-interpolation-filters="sRGB">
<feFlood flood-opacity="0" result="BackgroundImageFix"/>
<feColorMatrix in="SourceAlpha" type="matrix" values="0 0 0 0 0 0 0 0 0 0 0 0 0 0 0 0 0 0 127 0" result="hardAlpha"/>
<feOffset/>
<feGaussianBlur stdDeviation="14.5"/>
<feComposite in2="hardAlpha" operator="out"/>
<feColorMatrix type="matrix" values="0 0 0 0 0.34151 0 0 0 0 0.396398 0 0 0 0 0.9875 0 0 0 0.2 0"/>
<feBlend mode="normal" in2="BackgroundImageFix" result="effect1_dropShadow_124_1743"/>
<feBlend mode="normal" in="SourceGraphic" in2="effect1_dropShadow_124_1743" result="shape"/>
</filter>
<linearGradient id="paint0_linear_124_1743" x1="3070.28" y1="6325.17" x2="3070.28" y2="47.7623" gradientUnits="userSpaceOnUse">
<stop stop-color="#F37C27"/>
<stop offset="1" stop-color="#ED3774"/>
</linearGradient>
<linearGradient id="paint1_linear_124_1743" x1="491.921" y1="332.842" x2="491.921" y2="471" gradientUnits="userSpaceOnUse">
<stop stop-color="#FF73E9" stop-opacity="0.88"/>
<stop offset="1" stop-color="#5765FC" stop-opacity="0.71"/>
</linearGradient>
<clipPath id="clip0_124_1743">
<rect width="54.3589" height="62.8571" fill="white" transform="translate(357.775 47.5715)"/>
</clipPath>
<clipPath id="clip1_124_1743">
<rect width="31.2363" height="27" fill="white" transform="translate(186 688)"/>
</clipPath>
<clipPath id="clip2_124_1743">
<rect width="32.5521" height="30" fill="white" transform="translate(213 79)"/>
</clipPath>
<clipPath id="clip3_124_1743">
<rect width="44" height="44" fill="white" transform="translate(257 582)"/>
</clipPath>
<clipPath id="clip4_124_1743">
<rect width="62.8571" height="62.8571" fill="white" transform="translate(141.214 495.214)"/>
</clipPath>
<clipPath id="clip5_124_1743">
<rect width="55.4149" height="62.8571" fill="white" transform="translate(358.087 650.571)"/>
</clipPath>
<clipPath id="clip6_124_1743">
<rect width="46.276" height="40" fill="white" transform="translate(282 193)"/>
</clipPath>
</defs>
</svg>
